%TF.GenerationSoftware,KiCad,Pcbnew,(7.0.0)*%
%TF.CreationDate,2023-08-07T02:07:42-04:00*%
%TF.ProjectId,NoU3,4e6f5533-2e6b-4696-9361-645f70636258,rev?*%
%TF.SameCoordinates,Original*%
%TF.FileFunction,Legend,Top*%
%TF.FilePolarity,Positive*%
%FSLAX46Y46*%
G04 Gerber Fmt 4.6, Leading zero omitted, Abs format (unit mm)*
G04 Created by KiCad (PCBNEW (7.0.0)) date 2023-08-07 02:07:42*
%MOMM*%
%LPD*%
G01*
G04 APERTURE LIST*
G04 Aperture macros list*
%AMRoundRect*
0 Rectangle with rounded corners*
0 $1 Rounding radius*
0 $2 $3 $4 $5 $6 $7 $8 $9 X,Y pos of 4 corners*
0 Add a 4 corners polygon primitive as box body*
4,1,4,$2,$3,$4,$5,$6,$7,$8,$9,$2,$3,0*
0 Add four circle primitives for the rounded corners*
1,1,$1+$1,$2,$3*
1,1,$1+$1,$4,$5*
1,1,$1+$1,$6,$7*
1,1,$1+$1,$8,$9*
0 Add four rect primitives between the rounded corners*
20,1,$1+$1,$2,$3,$4,$5,0*
20,1,$1+$1,$4,$5,$6,$7,0*
20,1,$1+$1,$6,$7,$8,$9,0*
20,1,$1+$1,$8,$9,$2,$3,0*%
G04 Aperture macros list end*
%ADD10C,0.254000*%
%ADD11C,0.120000*%
%ADD12C,0.200000*%
%ADD13C,0.100000*%
%ADD14RoundRect,0.140000X-0.140000X-0.170000X0.140000X-0.170000X0.140000X0.170000X-0.140000X0.170000X0*%
%ADD15RoundRect,0.140000X0.170000X-0.140000X0.170000X0.140000X-0.170000X0.140000X-0.170000X-0.140000X0*%
%ADD16RoundRect,0.140000X-0.170000X0.140000X-0.170000X-0.140000X0.170000X-0.140000X0.170000X0.140000X0*%
%ADD17R,2.794000X3.810000*%
%ADD18RoundRect,0.100000X0.687500X0.100000X-0.687500X0.100000X-0.687500X-0.100000X0.687500X-0.100000X0*%
%ADD19RoundRect,0.250000X0.250000X0.250000X-0.250000X0.250000X-0.250000X-0.250000X0.250000X-0.250000X0*%
%ADD20RoundRect,0.135000X-0.135000X-0.185000X0.135000X-0.185000X0.135000X0.185000X-0.135000X0.185000X0*%
%ADD21RoundRect,0.135000X-0.185000X0.135000X-0.185000X-0.135000X0.185000X-0.135000X0.185000X0.135000X0*%
%ADD22RoundRect,0.135000X0.135000X0.185000X-0.135000X0.185000X-0.135000X-0.185000X0.135000X-0.185000X0*%
%ADD23RoundRect,0.100000X0.637500X0.100000X-0.637500X0.100000X-0.637500X-0.100000X0.637500X-0.100000X0*%
%ADD24RoundRect,0.225000X-0.250000X0.225000X-0.250000X-0.225000X0.250000X-0.225000X0.250000X0.225000X0*%
%ADD25RoundRect,0.135000X0.185000X-0.135000X0.185000X0.135000X-0.185000X0.135000X-0.185000X-0.135000X0*%
%ADD26RoundRect,0.100000X-0.900000X0.300000X-0.900000X-0.300000X0.900000X-0.300000X0.900000X0.300000X0*%
%ADD27RoundRect,0.100000X-0.687500X-0.100000X0.687500X-0.100000X0.687500X0.100000X-0.687500X0.100000X0*%
%ADD28RoundRect,0.140000X0.140000X0.170000X-0.140000X0.170000X-0.140000X-0.170000X0.140000X-0.170000X0*%
%ADD29C,1.200000*%
%ADD30RoundRect,0.225000X0.225000X0.250000X-0.225000X0.250000X-0.225000X-0.250000X0.225000X-0.250000X0*%
%ADD31RoundRect,0.150000X0.625000X-0.150000X0.625000X0.150000X-0.625000X0.150000X-0.625000X-0.150000X0*%
%ADD32RoundRect,0.250000X0.650000X-0.350000X0.650000X0.350000X-0.650000X0.350000X-0.650000X-0.350000X0*%
%ADD33RoundRect,0.150000X0.150000X-0.400000X0.150000X0.400000X-0.150000X0.400000X-0.150000X-0.400000X0*%
%ADD34RoundRect,0.150000X-0.625000X0.150000X-0.625000X-0.150000X0.625000X-0.150000X0.625000X0.150000X0*%
%ADD35RoundRect,0.250000X-0.650000X0.350000X-0.650000X-0.350000X0.650000X-0.350000X0.650000X0.350000X0*%
%ADD36RoundRect,0.150000X-0.150000X0.512500X-0.150000X-0.512500X0.150000X-0.512500X0.150000X0.512500X0*%
%ADD37C,3.200000*%
%ADD38R,0.800000X0.900000*%
%ADD39C,2.100000*%
%ADD40RoundRect,0.050000X-0.050000X0.387500X-0.050000X-0.387500X0.050000X-0.387500X0.050000X0.387500X0*%
%ADD41RoundRect,0.050000X-0.387500X0.050000X-0.387500X-0.050000X0.387500X-0.050000X0.387500X0.050000X0*%
%ADD42R,3.200000X3.200000*%
%ADD43O,1.700000X1.700000*%
%ADD44RoundRect,0.800000X0.000000X-0.600000X0.000000X-0.600000X0.000000X0.600000X0.000000X0.600000X0*%
%ADD45RoundRect,0.800000X0.600000X0.000000X0.600000X0.000000X-0.600000X0.000000X-0.600000X0.000000X0*%
%ADD46C,1.500000*%
%ADD47R,0.500000X0.375000*%
%ADD48R,0.650000X0.300000*%
%ADD49RoundRect,0.250000X0.250000X0.475000X-0.250000X0.475000X-0.250000X-0.475000X0.250000X-0.475000X0*%
%ADD50C,0.600000*%
%ADD51R,0.600000X1.160000*%
%ADD52R,0.300000X1.160000*%
%ADD53O,0.900000X2.000000*%
%ADD54O,0.900000X1.700000*%
%ADD55RoundRect,0.225000X-0.225000X-0.250000X0.225000X-0.250000X0.225000X0.250000X-0.225000X0.250000X0*%
%ADD56RoundRect,0.250000X-0.250000X-0.475000X0.250000X-0.475000X0.250000X0.475000X-0.250000X0.475000X0*%
%ADD57R,0.250000X0.675000*%
%ADD58R,0.675000X0.250000*%
%ADD59RoundRect,0.212500X-0.887500X0.212500X-0.887500X-0.212500X0.887500X-0.212500X0.887500X0.212500X0*%
%ADD60R,0.300000X0.450000*%
%ADD61R,0.450000X0.300000*%
%ADD62RoundRect,0.150000X-0.512500X-0.150000X0.512500X-0.150000X0.512500X0.150000X-0.512500X0.150000X0*%
%ADD63RoundRect,0.212500X0.212500X0.887500X-0.212500X0.887500X-0.212500X-0.887500X0.212500X-0.887500X0*%
%ADD64RoundRect,0.250000X-0.325000X-0.650000X0.325000X-0.650000X0.325000X0.650000X-0.325000X0.650000X0*%
G04 APERTURE END LIST*
D10*
X-16945445Y23000000D02*
G75*
G03*
X-16945445Y23000000I-3054555J0D01*
G01*
X23048000Y-27000000D02*
G75*
G03*
X23048000Y-27000000I-3048000J0D01*
G01*
D11*
X12800000Y4954783D02*
X3000001Y4954783D01*
X3000000Y14754783D01*
X12800001Y14754783D01*
X12800000Y4954783D01*
D10*
X3048000Y3000000D02*
G75*
G03*
X3048000Y3000000I-3048000J0D01*
G01*
D12*
X-7990476Y-18064000D02*
X-8066666Y-18025904D01*
X-8066666Y-18025904D02*
X-8180952Y-18025904D01*
X-8180952Y-18025904D02*
X-8295238Y-18064000D01*
X-8295238Y-18064000D02*
X-8371428Y-18140190D01*
X-8371428Y-18140190D02*
X-8409523Y-18216380D01*
X-8409523Y-18216380D02*
X-8447619Y-18368761D01*
X-8447619Y-18368761D02*
X-8447619Y-18483047D01*
X-8447619Y-18483047D02*
X-8409523Y-18635428D01*
X-8409523Y-18635428D02*
X-8371428Y-18711619D01*
X-8371428Y-18711619D02*
X-8295238Y-18787809D01*
X-8295238Y-18787809D02*
X-8180952Y-18825904D01*
X-8180952Y-18825904D02*
X-8104761Y-18825904D01*
X-8104761Y-18825904D02*
X-7990476Y-18787809D01*
X-7990476Y-18787809D02*
X-7952380Y-18749714D01*
X-7952380Y-18749714D02*
X-7952380Y-18483047D01*
X-7952380Y-18483047D02*
X-8104761Y-18483047D01*
X-22442857Y-24806857D02*
X-22328571Y-24844952D01*
X-22328571Y-24844952D02*
X-22290476Y-24883047D01*
X-22290476Y-24883047D02*
X-22252380Y-24959238D01*
X-22252380Y-24959238D02*
X-22252380Y-25073523D01*
X-22252380Y-25073523D02*
X-22290476Y-25149714D01*
X-22290476Y-25149714D02*
X-22328571Y-25187809D01*
X-22328571Y-25187809D02*
X-22404761Y-25225904D01*
X-22404761Y-25225904D02*
X-22709523Y-25225904D01*
X-22709523Y-25225904D02*
X-22709523Y-24425904D01*
X-22709523Y-24425904D02*
X-22442857Y-24425904D01*
X-22442857Y-24425904D02*
X-22366666Y-24464000D01*
X-22366666Y-24464000D02*
X-22328571Y-24502095D01*
X-22328571Y-24502095D02*
X-22290476Y-24578285D01*
X-22290476Y-24578285D02*
X-22290476Y-24654476D01*
X-22290476Y-24654476D02*
X-22328571Y-24730666D01*
X-22328571Y-24730666D02*
X-22366666Y-24768761D01*
X-22366666Y-24768761D02*
X-22442857Y-24806857D01*
X-22442857Y-24806857D02*
X-22709523Y-24806857D01*
X-22023809Y-24425904D02*
X-21566666Y-24425904D01*
X-21795238Y-25225904D02*
X-21795238Y-24425904D01*
X-8628571Y-20625904D02*
X-9009523Y-20625904D01*
X-9009523Y-20625904D02*
X-9047619Y-21006857D01*
X-9047619Y-21006857D02*
X-9009523Y-20968761D01*
X-9009523Y-20968761D02*
X-8933333Y-20930666D01*
X-8933333Y-20930666D02*
X-8742857Y-20930666D01*
X-8742857Y-20930666D02*
X-8666666Y-20968761D01*
X-8666666Y-20968761D02*
X-8628571Y-21006857D01*
X-8628571Y-21006857D02*
X-8590476Y-21083047D01*
X-8590476Y-21083047D02*
X-8590476Y-21273523D01*
X-8590476Y-21273523D02*
X-8628571Y-21349714D01*
X-8628571Y-21349714D02*
X-8666666Y-21387809D01*
X-8666666Y-21387809D02*
X-8742857Y-21425904D01*
X-8742857Y-21425904D02*
X-8933333Y-21425904D01*
X-8933333Y-21425904D02*
X-9009523Y-21387809D01*
X-9009523Y-21387809D02*
X-9047619Y-21349714D01*
X-8361904Y-20625904D02*
X-8095237Y-21425904D01*
X-8095237Y-21425904D02*
X-7828571Y-20625904D01*
X-9047619Y-23887809D02*
X-8933333Y-23925904D01*
X-8933333Y-23925904D02*
X-8742857Y-23925904D01*
X-8742857Y-23925904D02*
X-8666666Y-23887809D01*
X-8666666Y-23887809D02*
X-8628571Y-23849714D01*
X-8628571Y-23849714D02*
X-8590476Y-23773523D01*
X-8590476Y-23773523D02*
X-8590476Y-23697333D01*
X-8590476Y-23697333D02*
X-8628571Y-23621142D01*
X-8628571Y-23621142D02*
X-8666666Y-23583047D01*
X-8666666Y-23583047D02*
X-8742857Y-23544952D01*
X-8742857Y-23544952D02*
X-8895238Y-23506857D01*
X-8895238Y-23506857D02*
X-8971428Y-23468761D01*
X-8971428Y-23468761D02*
X-9009523Y-23430666D01*
X-9009523Y-23430666D02*
X-9047619Y-23354476D01*
X-9047619Y-23354476D02*
X-9047619Y-23278285D01*
X-9047619Y-23278285D02*
X-9009523Y-23202095D01*
X-9009523Y-23202095D02*
X-8971428Y-23164000D01*
X-8971428Y-23164000D02*
X-8895238Y-23125904D01*
X-8895238Y-23125904D02*
X-8704761Y-23125904D01*
X-8704761Y-23125904D02*
X-8590476Y-23164000D01*
X-7828571Y-23925904D02*
X-8285714Y-23925904D01*
X-8057142Y-23925904D02*
X-8057142Y-23125904D01*
X-8057142Y-23125904D02*
X-8133333Y-23240190D01*
X-8133333Y-23240190D02*
X-8209523Y-23316380D01*
X-8209523Y-23316380D02*
X-8285714Y-23354476D01*
X-18709523Y-24706857D02*
X-18442857Y-24706857D01*
X-18328571Y-25125904D02*
X-18709523Y-25125904D01*
X-18709523Y-25125904D02*
X-18709523Y-24325904D01*
X-18709523Y-24325904D02*
X-18328571Y-24325904D01*
X-17985713Y-25125904D02*
X-17985713Y-24325904D01*
X-17985713Y-24325904D02*
X-17528570Y-25125904D01*
X-17528570Y-25125904D02*
X-17528570Y-24325904D01*
X12609523Y536000D02*
X12533333Y574095D01*
X12533333Y574095D02*
X12419047Y574095D01*
X12419047Y574095D02*
X12304761Y536000D01*
X12304761Y536000D02*
X12228571Y459809D01*
X12228571Y459809D02*
X12190476Y383619D01*
X12190476Y383619D02*
X12152380Y231238D01*
X12152380Y231238D02*
X12152380Y116952D01*
X12152380Y116952D02*
X12190476Y-35428D01*
X12190476Y-35428D02*
X12228571Y-111619D01*
X12228571Y-111619D02*
X12304761Y-187809D01*
X12304761Y-187809D02*
X12419047Y-225904D01*
X12419047Y-225904D02*
X12495238Y-225904D01*
X12495238Y-225904D02*
X12609523Y-187809D01*
X12609523Y-187809D02*
X12647619Y-149714D01*
X12647619Y-149714D02*
X12647619Y116952D01*
X12647619Y116952D02*
X12495238Y116952D01*
X13333333Y307428D02*
X13333333Y-225904D01*
X13142857Y612190D02*
X12952380Y40761D01*
X12952380Y40761D02*
X13447619Y40761D01*
X14095238Y574095D02*
X13942857Y574095D01*
X13942857Y574095D02*
X13866666Y536000D01*
X13866666Y536000D02*
X13828571Y497904D01*
X13828571Y497904D02*
X13752381Y383619D01*
X13752381Y383619D02*
X13714285Y231238D01*
X13714285Y231238D02*
X13714285Y-73523D01*
X13714285Y-73523D02*
X13752381Y-149714D01*
X13752381Y-149714D02*
X13790476Y-187809D01*
X13790476Y-187809D02*
X13866666Y-225904D01*
X13866666Y-225904D02*
X14019047Y-225904D01*
X14019047Y-225904D02*
X14095238Y-187809D01*
X14095238Y-187809D02*
X14133333Y-149714D01*
X14133333Y-149714D02*
X14171428Y-73523D01*
X14171428Y-73523D02*
X14171428Y116952D01*
X14171428Y116952D02*
X14133333Y193142D01*
X14133333Y193142D02*
X14095238Y231238D01*
X14095238Y231238D02*
X14019047Y269333D01*
X14019047Y269333D02*
X13866666Y269333D01*
X13866666Y269333D02*
X13790476Y231238D01*
X13790476Y231238D02*
X13752381Y193142D01*
X13752381Y193142D02*
X13714285Y116952D01*
X9009523Y536000D02*
X8933333Y574095D01*
X8933333Y574095D02*
X8819047Y574095D01*
X8819047Y574095D02*
X8704761Y536000D01*
X8704761Y536000D02*
X8628571Y459809D01*
X8628571Y459809D02*
X8590476Y383619D01*
X8590476Y383619D02*
X8552380Y231238D01*
X8552380Y231238D02*
X8552380Y116952D01*
X8552380Y116952D02*
X8590476Y-35428D01*
X8590476Y-35428D02*
X8628571Y-111619D01*
X8628571Y-111619D02*
X8704761Y-187809D01*
X8704761Y-187809D02*
X8819047Y-225904D01*
X8819047Y-225904D02*
X8895238Y-225904D01*
X8895238Y-225904D02*
X9009523Y-187809D01*
X9009523Y-187809D02*
X9047619Y-149714D01*
X9047619Y-149714D02*
X9047619Y116952D01*
X9047619Y116952D02*
X8895238Y116952D01*
X9733333Y307428D02*
X9733333Y-225904D01*
X9542857Y612190D02*
X9352380Y40761D01*
X9352380Y40761D02*
X9847619Y40761D01*
X10533333Y574095D02*
X10152381Y574095D01*
X10152381Y574095D02*
X10114285Y193142D01*
X10114285Y193142D02*
X10152381Y231238D01*
X10152381Y231238D02*
X10228571Y269333D01*
X10228571Y269333D02*
X10419047Y269333D01*
X10419047Y269333D02*
X10495238Y231238D01*
X10495238Y231238D02*
X10533333Y193142D01*
X10533333Y193142D02*
X10571428Y116952D01*
X10571428Y116952D02*
X10571428Y-73523D01*
X10571428Y-73523D02*
X10533333Y-149714D01*
X10533333Y-149714D02*
X10495238Y-187809D01*
X10495238Y-187809D02*
X10419047Y-225904D01*
X10419047Y-225904D02*
X10228571Y-225904D01*
X10228571Y-225904D02*
X10152381Y-187809D01*
X10152381Y-187809D02*
X10114285Y-149714D01*
D11*
%TO.C,C38*%
X13901201Y9210000D02*
X14116873Y9210000D01*
X13901201Y8490000D02*
X14116873Y8490000D01*
%TO.C,C7*%
X-4460000Y-1407836D02*
X-4460000Y-1192164D01*
X-3740000Y-1407836D02*
X-3740000Y-1192164D01*
%TO.C,C41*%
X2860000Y-27892164D02*
X2860000Y-28107836D01*
X2140000Y-27892164D02*
X2140000Y-28107836D01*
%TO.C,U1*%
X4500000Y-7960000D02*
X8150000Y-7960000D01*
X4500000Y-7960000D02*
X2300000Y-7960000D01*
X4500000Y-2440000D02*
X6700000Y-2440000D01*
X4500000Y-2440000D02*
X2300000Y-2440000D01*
%TO.C,D2*%
X13850000Y16450000D02*
X13850000Y17950000D01*
X13850000Y16450000D02*
X10750000Y16450000D01*
X13850000Y17950000D02*
X10740000Y17950000D01*
%TO.C,R3*%
X-7453641Y-8320000D02*
X-7146359Y-8320000D01*
X-7453641Y-9080000D02*
X-7146359Y-9080000D01*
%TO.C,C40*%
X2140000Y-26157836D02*
X2140000Y-25942164D01*
X2860000Y-26157836D02*
X2860000Y-25942164D01*
%TO.C,R19*%
X7880000Y-26241359D02*
X7880000Y-26548641D01*
X7120000Y-26241359D02*
X7120000Y-26548641D01*
%TO.C,R26*%
X14953641Y16620000D02*
X14646359Y16620000D01*
X14953641Y17380000D02*
X14646359Y17380000D01*
%TO.C,R23*%
X15653641Y-27580000D02*
X15346359Y-27580000D01*
X15653641Y-26820000D02*
X15346359Y-26820000D01*
%TO.C,C25*%
X2340001Y9942164D02*
X2340001Y10157836D01*
X3060001Y9942164D02*
X3060001Y10157836D01*
%TO.C,U13*%
X-11050000Y-10000D02*
X-7450000Y-10000D01*
X-11050000Y-10000D02*
X-13250000Y-10000D01*
X-11050000Y5460000D02*
X-8850000Y5460000D01*
X-11050000Y5460000D02*
X-13250000Y5460000D01*
%TO.C,C35*%
X-3290000Y14140580D02*
X-3290000Y13859420D01*
X-4310000Y14140580D02*
X-4310000Y13859420D01*
%TO.C,U14*%
X-11050000Y5790000D02*
X-7450000Y5790000D01*
X-11050000Y5790000D02*
X-13250000Y5790000D01*
X-11050000Y11260000D02*
X-8850000Y11260000D01*
X-11050000Y11260000D02*
X-13250000Y11260000D01*
%TO.C,R15*%
X7157349Y16550788D02*
X6850067Y16550788D01*
X7157349Y17310788D02*
X6850067Y17310788D01*
%TO.C,R16*%
X620000Y18346359D02*
X620000Y18653641D01*
X1380000Y18346359D02*
X1380000Y18653641D01*
%TO.C,SW2*%
X-18700000Y-25500000D02*
X-21700000Y-25500000D01*
X-21700000Y-25500000D02*
X-21700000Y-28500000D01*
X-21700000Y-28500000D02*
X-18700000Y-28500000D01*
X-18700000Y-28500000D02*
X-18700000Y-25500000D01*
%TO.C,R18*%
X8180000Y653641D02*
X8180000Y346359D01*
X7420000Y653641D02*
X7420000Y346359D01*
%TO.C,U4*%
X-4500000Y-2440000D02*
X-8150000Y-2440000D01*
X-4500000Y-2440000D02*
X-2300000Y-2440000D01*
X-4500000Y-7960000D02*
X-6700000Y-7960000D01*
X-4500000Y-7960000D02*
X-2300000Y-7960000D01*
%TO.C,C30*%
X13666873Y7590000D02*
X13451201Y7590000D01*
X13666873Y8310000D02*
X13451201Y8310000D01*
%TO.C,C39*%
X-8000000Y13000000D02*
X-8000000Y12000000D01*
X-7500000Y12500000D02*
X-8500000Y12500000D01*
X-4500000Y14000000D02*
G75*
G03*
X-4500000Y14000000I-2500000J0D01*
G01*
%TO.C,C22*%
X740580Y8190000D02*
X459420Y8190000D01*
X740580Y9210000D02*
X459420Y9210000D01*
%TO.C,J17*%
X11660000Y-19110000D02*
X12810000Y-19110000D01*
X12810000Y-19110000D02*
X12810000Y-18060000D01*
X12810000Y-18060000D02*
X13800000Y-18060000D01*
X9690000Y-17940000D02*
X9690000Y-12060000D01*
X11660000Y-10890000D02*
X12810000Y-10890000D01*
X12810000Y-10890000D02*
X12810000Y-11940000D01*
%TO.C,Q1*%
X12500000Y20900000D02*
X12500000Y19500000D01*
X12500000Y20900000D02*
X12500000Y21550000D01*
X15500000Y20900000D02*
X15500000Y20250000D01*
X15500000Y20900000D02*
X15500000Y21550000D01*
%TO.C,C34*%
X13686873Y13090000D02*
X13471201Y13090000D01*
X13686873Y13810000D02*
X13471201Y13810000D01*
%TO.C,J13*%
X-11660000Y-20890000D02*
X-12810000Y-20890000D01*
X-12810000Y-20890000D02*
X-12810000Y-21940000D01*
X-12810000Y-21940000D02*
X-13800000Y-21940000D01*
X-9690000Y-22060000D02*
X-9690000Y-27940000D01*
X-11660000Y-29110000D02*
X-12810000Y-29110000D01*
X-12810000Y-29110000D02*
X-12810000Y-28060000D01*
%TO.C,U16*%
X-3490000Y6962500D02*
X-3490000Y8762500D01*
X-3490000Y6962500D02*
X-3490000Y6162500D01*
X-6610000Y6962500D02*
X-6610000Y7762500D01*
X-6610000Y6962500D02*
X-6610000Y6162500D01*
%TO.C,C10*%
X-5092164Y-10060000D02*
X-5307836Y-10060000D01*
X-5092164Y-9340000D02*
X-5307836Y-9340000D01*
%TO.C,C4*%
X5192164Y-8340000D02*
X5407836Y-8340000D01*
X5192164Y-9060000D02*
X5407836Y-9060000D01*
%TO.C,C15*%
X16492164Y18260000D02*
X16707836Y18260000D01*
X16492164Y17540000D02*
X16707836Y17540000D01*
%TO.C,C27*%
X2160000Y7207836D02*
X2160000Y6992164D01*
X1440000Y7207836D02*
X1440000Y6992164D01*
%TO.C,U6*%
X4500000Y-15960000D02*
X8150000Y-15960000D01*
X4500000Y-15960000D02*
X2300000Y-15960000D01*
X4500000Y-10440000D02*
X6700000Y-10440000D01*
X4500000Y-10440000D02*
X2300000Y-10440000D01*
%TO.C,U3*%
X12641169Y9342283D02*
X14941169Y9342283D01*
X14941169Y9342283D02*
X14941169Y12042283D01*
%TO.C,R17*%
X4046359Y980000D02*
X4353641Y980000D01*
X4046359Y220000D02*
X4353641Y220000D01*
%TO.C,J11*%
X15700000Y-24000000D02*
X15700000Y-24500000D01*
X16200000Y-24500000D02*
X16200000Y-24000000D01*
X15700000Y-24500000D02*
X16200000Y-24500000D01*
X22900000Y-14000000D02*
X15100000Y-14000000D01*
X15100000Y-14000000D02*
X15100000Y-24000000D01*
X15100000Y-24000000D02*
X22900000Y-24000000D01*
X22900000Y-24000000D02*
X22900000Y-14000000D01*
%TO.C,J10*%
X11660000Y-29110000D02*
X12810000Y-29110000D01*
X12810000Y-29110000D02*
X12810000Y-28060000D01*
X12810000Y-28060000D02*
X13800000Y-28060000D01*
X9690000Y-27940000D02*
X9690000Y-22060000D01*
X11660000Y-20890000D02*
X12810000Y-20890000D01*
X12810000Y-20890000D02*
X12810000Y-21940000D01*
%TO.C,J6*%
X-15700000Y6000000D02*
X-15700000Y6500000D01*
X-16200000Y6500000D02*
X-16200000Y6000000D01*
X-15700000Y6500000D02*
X-16200000Y6500000D01*
X-22900000Y-4000000D02*
X-15100000Y-4000000D01*
X-15100000Y-4000000D02*
X-15100000Y6000000D01*
X-15100000Y6000000D02*
X-22900000Y6000000D01*
X-22900000Y6000000D02*
X-22900000Y-4000000D01*
%TO.C,R6*%
X-7453641Y-16320000D02*
X-7146359Y-16320000D01*
X-7453641Y-17080000D02*
X-7146359Y-17080000D01*
%TO.C,U2*%
X4290000Y13510000D02*
X4940000Y13510000D01*
X11510000Y12860000D02*
X11510000Y13510000D01*
X4290000Y12860000D02*
X4290000Y13510000D01*
X11510000Y6940000D02*
X11510000Y6290000D01*
X4290000Y6940000D02*
X4290000Y6290000D01*
X11510000Y6290000D02*
X10860000Y6290000D01*
X4290000Y6290000D02*
X4940000Y6290000D01*
%TO.C,C33*%
X-5196164Y9252500D02*
X-5411836Y9252500D01*
X-5196164Y9972500D02*
X-5411836Y9972500D01*
%TO.C,R30*%
X7201025Y15752283D02*
X7201025Y15445001D01*
X6441025Y15752283D02*
X6441025Y15445001D01*
%TO.C,J15*%
X-13550000Y25682500D02*
X-13550000Y16682500D01*
X-13550000Y16682500D02*
X-4550000Y16682500D01*
X0Y25682500D02*
X-13550000Y25682500D01*
X0Y25682500D02*
X0Y23182500D01*
X0Y16682500D02*
X-550000Y16682500D01*
X0Y16682500D02*
X0Y19182500D01*
%TO.C,C32*%
X-2083059Y9258251D02*
X-1867387Y9258251D01*
X-2083059Y8538251D02*
X-1867387Y8538251D01*
%TO.C,D4*%
X11900000Y1750000D02*
X12300000Y1750000D01*
X14100000Y1750000D02*
X14500000Y1750000D01*
X12313092Y4129633D02*
G75*
G03*
X11900001Y1750001I886908J-1379633D01*
G01*
X14499999Y1750001D02*
G75*
G03*
X14086908Y4129633I-1299999J999999D01*
G01*
%TO.C,R24*%
X15653641Y-28480000D02*
X15346359Y-28480000D01*
X15653641Y-27720000D02*
X15346359Y-27720000D01*
%TO.C,C43*%
X-7240000Y-25892164D02*
X-7240000Y-26107836D01*
X-7960000Y-25892164D02*
X-7960000Y-26107836D01*
%TO.C,U5*%
X-4500000Y-10440000D02*
X-8150000Y-10440000D01*
X-4500000Y-10440000D02*
X-2300000Y-10440000D01*
X-4500000Y-15960000D02*
X-6700000Y-15960000D01*
X-4500000Y-15960000D02*
X-2300000Y-15960000D01*
%TO.C,C37*%
X13471201Y12961471D02*
X13686873Y12961471D01*
X13471201Y12241471D02*
X13686873Y12241471D01*
%TO.C,J5*%
X-15700000Y16000000D02*
X-15700000Y16500000D01*
X-16200000Y16500000D02*
X-16200000Y16000000D01*
X-15700000Y16500000D02*
X-16200000Y16500000D01*
X-22900000Y6000000D02*
X-15100000Y6000000D01*
X-15100000Y6000000D02*
X-15100000Y16000000D01*
X-15100000Y16000000D02*
X-22900000Y16000000D01*
X-22900000Y16000000D02*
X-22900000Y6000000D01*
%TO.C,U9*%
X2000000Y15200000D02*
X3600000Y15200000D01*
X3600000Y17000000D02*
X1700000Y17000000D01*
%TO.C,C11*%
X-1538748Y-1935000D02*
X-2061252Y-1935000D01*
X-1538748Y-465000D02*
X-2061252Y-465000D01*
%TO.C,R12*%
X46359Y7880000D02*
X353641Y7880000D01*
X46359Y7120000D02*
X353641Y7120000D01*
%TO.C,C13*%
X5192164Y-16340000D02*
X5407836Y-16340000D01*
X5192164Y-17060000D02*
X5407836Y-17060000D01*
%TO.C,J1*%
X11660000Y-9110000D02*
X12810000Y-9110000D01*
X12810000Y-9110000D02*
X12810000Y-8060000D01*
X12810000Y-8060000D02*
X13800000Y-8060000D01*
X9690000Y-7940000D02*
X9690000Y-2060000D01*
X11660000Y-890000D02*
X12810000Y-890000D01*
X12810000Y-890000D02*
X12810000Y-1940000D01*
%TO.C,U17*%
X11170000Y20455000D02*
X11170000Y22255000D01*
X11170000Y25965000D02*
X11170000Y24505000D01*
X2230000Y20455000D02*
X2230000Y22255000D01*
X2230000Y25965000D02*
X11170000Y25965000D01*
X2230000Y25965000D02*
X2230000Y24505000D01*
%TO.C,R5*%
X8341537Y15416358D02*
X8341537Y15723640D01*
X9101537Y15416358D02*
X9101537Y15723640D01*
%TO.C,C36*%
X-6240580Y-1090000D02*
X-5959420Y-1090000D01*
X-6240580Y-2110000D02*
X-5959420Y-2110000D01*
%TO.C,C2*%
X2138748Y-465000D02*
X2661252Y-465000D01*
X2138748Y-1935000D02*
X2661252Y-1935000D01*
D13*
%TO.C,U26*%
X-1350000Y-28700000D02*
X-1350000Y-27880000D01*
X1350000Y-28600000D02*
X1130000Y-28600000D01*
X1350000Y-28600000D02*
X1350000Y-27880000D01*
X-1350000Y-26120000D02*
X-1350000Y-25400000D01*
X-1350000Y-25400000D02*
X-1130000Y-25400000D01*
X1130000Y-25400000D02*
X1350000Y-25400000D01*
X1350000Y-25400000D02*
X1350000Y-26120000D01*
D11*
%TO.C,J2*%
X15700000Y-4000000D02*
X15700000Y-4500000D01*
X16200000Y-4500000D02*
X16200000Y-4000000D01*
X15700000Y-4500000D02*
X16200000Y-4500000D01*
X22900000Y6000000D02*
X15100000Y6000000D01*
X15100000Y6000000D02*
X15100000Y-4000000D01*
X15100000Y-4000000D02*
X22900000Y-4000000D01*
X22900000Y-4000000D02*
X22900000Y6000000D01*
%TO.C,C3*%
X5407836Y-2060000D02*
X5192164Y-2060000D01*
X5407836Y-1340000D02*
X5192164Y-1340000D01*
%TO.C,R20*%
X15346359Y-25020000D02*
X15653641Y-25020000D01*
X15346359Y-25780000D02*
X15653641Y-25780000D01*
%TO.C,J12*%
X15700000Y-14000000D02*
X15700000Y-14500000D01*
X16200000Y-14500000D02*
X16200000Y-14000000D01*
X15700000Y-14500000D02*
X16200000Y-14500000D01*
X22900000Y-4000000D02*
X15100000Y-4000000D01*
X15100000Y-4000000D02*
X15100000Y-14000000D01*
X15100000Y-14000000D02*
X22900000Y-14000000D01*
X22900000Y-14000000D02*
X22900000Y-4000000D01*
%TO.C,R10*%
X12280000Y21553641D02*
X12280000Y21246359D01*
X11520000Y21553641D02*
X11520000Y21246359D01*
%TO.C,J4*%
X-11660000Y-890000D02*
X-12810000Y-890000D01*
X-12810000Y-890000D02*
X-12810000Y-1940000D01*
X-12810000Y-1940000D02*
X-13800000Y-1940000D01*
X-9690000Y-2060000D02*
X-9690000Y-7940000D01*
X-11660000Y-9110000D02*
X-12810000Y-9110000D01*
X-12810000Y-9110000D02*
X-12810000Y-8060000D01*
%TO.C,C8*%
X2138748Y-8465000D02*
X2661252Y-8465000D01*
X2138748Y-9935000D02*
X2661252Y-9935000D01*
%TO.C,J3*%
X15700000Y6000000D02*
X15700000Y5500000D01*
X16200000Y5500000D02*
X16200000Y6000000D01*
X15700000Y5500000D02*
X16200000Y5500000D01*
X22900000Y16000000D02*
X15100000Y16000000D01*
X15100000Y16000000D02*
X15100000Y6000000D01*
X15100000Y6000000D02*
X22900000Y6000000D01*
X22900000Y6000000D02*
X22900000Y16000000D01*
%TO.C,R8*%
X7553641Y-10080000D02*
X7246359Y-10080000D01*
X7553641Y-9320000D02*
X7246359Y-9320000D01*
%TO.C,R13*%
X-5150359Y10138500D02*
X-5457641Y10138500D01*
X-5150359Y10898500D02*
X-5457641Y10898500D01*
%TO.C,C31*%
X13686873Y13938528D02*
X13471201Y13938528D01*
X13686873Y14658528D02*
X13471201Y14658528D01*
%TO.C,R1*%
X7553641Y-2080000D02*
X7246359Y-2080000D01*
X7553641Y-1320000D02*
X7246359Y-1320000D01*
%TO.C,C9*%
X-5307836Y-16340000D02*
X-5092164Y-16340000D01*
X-5307836Y-17060000D02*
X-5092164Y-17060000D01*
D13*
%TO.C,U25*%
X-6600000Y-28600000D02*
X-6100000Y-28600000D01*
X-3400000Y-28600000D02*
X-3900000Y-28600000D01*
X-3400000Y-28600000D02*
X-3400000Y-28100000D01*
X-6600000Y-25900000D02*
X-6600000Y-25400000D01*
X-6600000Y-25400000D02*
X-6100000Y-25400000D01*
X-3900000Y-25400000D02*
X-3400000Y-25400000D01*
X-3400000Y-25400000D02*
X-3400000Y-25900000D01*
X-3400000Y-25400000D02*
X-3900000Y-25400000D01*
%TO.C,U23*%
X6350000Y-25300000D02*
X6350000Y-26120000D01*
X3650000Y-25400000D02*
X3870000Y-25400000D01*
X3650000Y-25400000D02*
X3650000Y-26120000D01*
X6350000Y-27880000D02*
X6350000Y-28600000D01*
X6350000Y-28600000D02*
X6130000Y-28600000D01*
X3870000Y-28600000D02*
X3650000Y-28600000D01*
X3650000Y-28600000D02*
X3650000Y-27880000D01*
D11*
%TO.C,C21*%
X10951537Y15677836D02*
X10951537Y15462164D01*
X10231537Y15677836D02*
X10231537Y15462164D01*
%TO.C,R31*%
X11246359Y980000D02*
X11553641Y980000D01*
X11246359Y220000D02*
X11553641Y220000D01*
%TO.C,C6*%
X-5307836Y-8340000D02*
X-5092164Y-8340000D01*
X-5307836Y-9060000D02*
X-5092164Y-9060000D01*
%TO.C,U15*%
X-176894Y12609495D02*
X-1976894Y12609495D01*
X-176894Y12609495D02*
X623106Y12609495D01*
X-176894Y9489495D02*
X-976894Y9489495D01*
X-176894Y9489495D02*
X623106Y9489495D01*
%TO.C,R14*%
X-4453641Y11780000D02*
X-4146359Y11780000D01*
X-4453641Y11020000D02*
X-4146359Y11020000D01*
%TO.C,J9*%
X-15700000Y-14000000D02*
X-15700000Y-13500000D01*
X-16200000Y-13500000D02*
X-16200000Y-14000000D01*
X-15700000Y-13500000D02*
X-16200000Y-13500000D01*
X-22900000Y-24000000D02*
X-15100000Y-24000000D01*
X-15100000Y-24000000D02*
X-15100000Y-14000000D01*
X-15100000Y-14000000D02*
X-22900000Y-14000000D01*
X-22900000Y-14000000D02*
X-22900000Y-24000000D01*
%TO.C,C5*%
X-2138748Y-9935000D02*
X-2661252Y-9935000D01*
X-2138748Y-8465000D02*
X-2661252Y-8465000D01*
%TO.C,C24*%
X9981538Y15677836D02*
X9981538Y15462164D01*
X9261538Y15677836D02*
X9261538Y15462164D01*
%TO.C,D5*%
X4700000Y1750000D02*
X5100000Y1750000D01*
X6900000Y1750000D02*
X7300000Y1750000D01*
X5113092Y4129633D02*
G75*
G03*
X4700001Y1750001I886908J-1379633D01*
G01*
X7299999Y1750001D02*
G75*
G03*
X6886908Y4129633I-1299999J999999D01*
G01*
%TO.C,R25*%
X15653641Y-29380000D02*
X15346359Y-29380000D01*
X15653641Y-28620000D02*
X15346359Y-28620000D01*
D12*
%TO.C,U8*%
X15800000Y18800000D02*
X21600000Y18800000D01*
X21600000Y18800000D02*
X21600000Y24600000D01*
X21600000Y24600000D02*
X15800000Y24600000D01*
X15800000Y24600000D02*
X15800000Y18800000D01*
D11*
X17450000Y19200000D02*
X17700000Y19200000D01*
X17700000Y19200000D02*
X17700000Y19450000D01*
X17700000Y19450000D02*
X17450000Y19450000D01*
X17450000Y19450000D02*
X17450000Y19200000D01*
%TO.C,C20*%
X-11150000Y15000000D02*
X-11150000Y16000000D01*
X-11650000Y15500000D02*
X-10650000Y15500000D01*
X-9650000Y14000000D02*
G75*
G03*
X-9650000Y14000000I-2500000J0D01*
G01*
%TO.C,C1*%
X7399037Y15462164D02*
X7399037Y15677836D01*
X8119037Y15462164D02*
X8119037Y15677836D01*
%TO.C,R11*%
X-2153641Y8280000D02*
X-1846359Y8280000D01*
X-2153641Y7520000D02*
X-1846359Y7520000D01*
%TO.C,C12*%
X5407836Y-10060000D02*
X5192164Y-10060000D01*
X5407836Y-9340000D02*
X5192164Y-9340000D01*
%TO.C,C28*%
X-160000Y13692164D02*
X-160000Y13907836D01*
X560000Y13692164D02*
X560000Y13907836D01*
%TO.C,C23*%
X-2290000Y11040580D02*
X-2290000Y10759420D01*
X-3310000Y11040580D02*
X-3310000Y10759420D01*
%TO.C,J8*%
X-15700000Y-4000000D02*
X-15700000Y-3500000D01*
X-16200000Y-3500000D02*
X-16200000Y-4000000D01*
X-15700000Y-3500000D02*
X-16200000Y-3500000D01*
X-22900000Y-14000000D02*
X-15100000Y-14000000D01*
X-15100000Y-14000000D02*
X-15100000Y-4000000D01*
X-15100000Y-4000000D02*
X-22900000Y-4000000D01*
X-22900000Y-4000000D02*
X-22900000Y-14000000D01*
%TO.C,C26*%
X3060000Y7907836D02*
X3060000Y7692164D01*
X2340000Y7907836D02*
X2340000Y7692164D01*
%TO.C,D6*%
X8300000Y1750000D02*
X8700000Y1750000D01*
X10500000Y1750000D02*
X10900000Y1750000D01*
X8713092Y4129633D02*
G75*
G03*
X8300001Y1750001I886908J-1379633D01*
G01*
X10899999Y1750001D02*
G75*
G03*
X10486908Y4129633I-1299999J999999D01*
G01*
%TO.C,R21*%
X15346359Y-25920000D02*
X15653641Y-25920000D01*
X15346359Y-26680000D02*
X15653641Y-26680000D01*
%TO.C,C14*%
X12507836Y15140000D02*
X12292164Y15140000D01*
X12507836Y15860000D02*
X12292164Y15860000D01*
%TO.C,D1*%
X15550000Y22550000D02*
X15550000Y24050000D01*
X15550000Y22550000D02*
X12450000Y22550000D01*
X15550000Y24050000D02*
X12440000Y24050000D01*
%TO.C,R28*%
X-2780000Y-26153641D02*
X-2780000Y-25846359D01*
X-2020000Y-26153641D02*
X-2020000Y-25846359D01*
%TO.C,D3*%
X15550000Y17750000D02*
X15550000Y19250000D01*
X15550000Y17750000D02*
X12450000Y17750000D01*
X15550000Y19250000D02*
X12440000Y19250000D01*
%TO.C,C42*%
X-7960000Y-28107836D02*
X-7960000Y-27892164D01*
X-7240000Y-28107836D02*
X-7240000Y-27892164D01*
%TO.C,R29*%
X5441025Y15455001D02*
X5441025Y15762283D01*
X6201025Y15455001D02*
X6201025Y15762283D01*
%TO.C,R22*%
X-2780000Y-28153641D02*
X-2780000Y-27846359D01*
X-2020000Y-28153641D02*
X-2020000Y-27846359D01*
%TO.C,R27*%
X16743641Y16620000D02*
X16436359Y16620000D01*
X16743641Y17380000D02*
X16436359Y17380000D01*
%TO.C,SW1*%
X-14700000Y-25500000D02*
X-17700000Y-25500000D01*
X-17700000Y-25500000D02*
X-17700000Y-28500000D01*
X-17700000Y-28500000D02*
X-14700000Y-28500000D01*
X-14700000Y-28500000D02*
X-14700000Y-25500000D01*
%TO.C,C29*%
X-2493646Y6801737D02*
X-2493646Y6586065D01*
X-3213646Y6801737D02*
X-3213646Y6586065D01*
%TO.C,J14*%
X19988748Y18210000D02*
X21411252Y18210000D01*
X19988748Y16390000D02*
X21411252Y16390000D01*
%TO.C,J7*%
X-11660000Y-10890000D02*
X-12810000Y-10890000D01*
X-12810000Y-10890000D02*
X-12810000Y-11940000D01*
X-12810000Y-11940000D02*
X-13800000Y-11940000D01*
X-9690000Y-12060000D02*
X-9690000Y-17940000D01*
X-11660000Y-19110000D02*
X-12810000Y-19110000D01*
X-12810000Y-19110000D02*
X-12810000Y-18060000D01*
%TD*%
%LPC*%
D14*
%TO.C,C38*%
X13529037Y8850000D03*
X14489037Y8850000D03*
%TD*%
D15*
%TO.C,C7*%
X-4100000Y-1780000D03*
X-4100000Y-820000D03*
%TD*%
D16*
%TO.C,C41*%
X2500000Y-27520000D03*
X2500000Y-28480000D03*
%TD*%
D17*
%TO.C,U1*%
X4499999Y-5199999D03*
D18*
X7362500Y-7475000D03*
X7362500Y-6825000D03*
X7362500Y-6175000D03*
X7362500Y-5525000D03*
X7362500Y-4875000D03*
X7362500Y-4225000D03*
X7362500Y-3575000D03*
X7362500Y-2925000D03*
X1637500Y-2925000D03*
X1637500Y-3575000D03*
X1637500Y-4225000D03*
X1637500Y-4875000D03*
X1637500Y-5525000D03*
X1637500Y-6175000D03*
X1637500Y-6825000D03*
X1637500Y-7475000D03*
%TD*%
D19*
%TO.C,D2*%
X13250000Y17200000D03*
X10750000Y17200000D03*
%TD*%
D20*
%TO.C,R3*%
X-7810000Y-8700000D03*
X-6790000Y-8700000D03*
%TD*%
D15*
%TO.C,C40*%
X2500000Y-26530000D03*
X2500000Y-25570000D03*
%TD*%
D21*
%TO.C,R19*%
X7500000Y-25885000D03*
X7500000Y-26905000D03*
%TD*%
D22*
%TO.C,R26*%
X15310000Y17000000D03*
X14290000Y17000000D03*
%TD*%
%TO.C,R23*%
X16010000Y-27200000D03*
X14990000Y-27200000D03*
%TD*%
D15*
%TO.C,C25*%
X2700001Y9570000D03*
X2700001Y10530000D03*
%TD*%
D23*
%TO.C,U13*%
X-8187500Y450000D03*
X-8187500Y1100000D03*
X-8187500Y1750000D03*
X-8187500Y2400000D03*
X-8187500Y3050000D03*
X-8187500Y3700000D03*
X-8187500Y4350000D03*
X-8187500Y5000000D03*
X-13912500Y5000000D03*
X-13912500Y4350000D03*
X-13912500Y3700000D03*
X-13912500Y3050000D03*
X-13912500Y2400000D03*
X-13912500Y1750000D03*
X-13912500Y1100000D03*
X-13912500Y450000D03*
%TD*%
D24*
%TO.C,C35*%
X-3800000Y14775000D03*
X-3800000Y13225000D03*
%TD*%
D23*
%TO.C,U14*%
X-8187500Y6250000D03*
X-8187500Y6900000D03*
X-8187500Y7550000D03*
X-8187500Y8200000D03*
X-8187500Y8850000D03*
X-8187500Y9500000D03*
X-8187500Y10150000D03*
X-8187500Y10800000D03*
X-13912500Y10800000D03*
X-13912500Y10150000D03*
X-13912500Y9500000D03*
X-13912500Y8850000D03*
X-13912500Y8200000D03*
X-13912500Y7550000D03*
X-13912500Y6900000D03*
X-13912500Y6250000D03*
%TD*%
D22*
%TO.C,R15*%
X7513708Y16930788D03*
X6493708Y16930788D03*
%TD*%
D25*
%TO.C,R16*%
X1000000Y17990000D03*
X1000000Y19010000D03*
%TD*%
D26*
%TO.C,SW2*%
X-20200000Y-24900000D03*
X-20200000Y-29100000D03*
%TD*%
D21*
%TO.C,R18*%
X7800000Y1010000D03*
X7800000Y-10000D03*
%TD*%
D17*
%TO.C,U4*%
X-4499999Y-5199999D03*
D27*
X-7362500Y-2925000D03*
X-7362500Y-3575000D03*
X-7362500Y-4225000D03*
X-7362500Y-4875000D03*
X-7362500Y-5525000D03*
X-7362500Y-6175000D03*
X-7362500Y-6825000D03*
X-7362500Y-7475000D03*
X-1637500Y-7475000D03*
X-1637500Y-6825000D03*
X-1637500Y-6175000D03*
X-1637500Y-5525000D03*
X-1637500Y-4875000D03*
X-1637500Y-4225000D03*
X-1637500Y-3575000D03*
X-1637500Y-2925000D03*
%TD*%
D28*
%TO.C,C30*%
X14039037Y7950000D03*
X13079037Y7950000D03*
%TD*%
D29*
%TO.C,C39*%
X-8000000Y14000000D03*
X-6000000Y14000000D03*
%TD*%
D30*
%TO.C,C22*%
X1375000Y8700000D03*
X-175000Y8700000D03*
%TD*%
D31*
%TO.C,J17*%
X13025000Y-17500000D03*
X13025000Y-16500000D03*
X13025000Y-15500000D03*
X13025000Y-14500000D03*
X13025000Y-13500000D03*
X13025000Y-12500000D03*
D32*
X10500000Y-18800000D03*
X10500000Y-11200000D03*
%TD*%
D33*
%TO.C,Q1*%
X13050000Y20050000D03*
X14950000Y20050000D03*
X14000000Y21750000D03*
%TD*%
D28*
%TO.C,C34*%
X14059037Y13450000D03*
X13099037Y13450000D03*
%TD*%
D34*
%TO.C,J13*%
X-13025000Y-22500000D03*
X-13025000Y-23500000D03*
X-13025000Y-24500000D03*
X-13025000Y-25500000D03*
X-13025000Y-26500000D03*
X-13025000Y-27500000D03*
D35*
X-10500000Y-21200000D03*
X-10500000Y-28800000D03*
%TD*%
D36*
%TO.C,U16*%
X-4100000Y8100000D03*
X-5050000Y8100000D03*
X-6000000Y8100000D03*
X-6000000Y5825000D03*
X-5050000Y5825000D03*
X-4100000Y5825000D03*
%TD*%
D28*
%TO.C,C10*%
X-4720000Y-9700000D03*
X-5680000Y-9700000D03*
%TD*%
D14*
%TO.C,C4*%
X4820000Y-8700000D03*
X5780000Y-8700000D03*
%TD*%
%TO.C,C15*%
X16120000Y17900000D03*
X17080000Y17900000D03*
%TD*%
D16*
%TO.C,C27*%
X1800000Y7580000D03*
X1800000Y6620000D03*
%TD*%
D17*
%TO.C,U6*%
X4499999Y-13199999D03*
D18*
X7362500Y-15475000D03*
X7362500Y-14825000D03*
X7362500Y-14175000D03*
X7362500Y-13525000D03*
X7362500Y-12875000D03*
X7362500Y-12225000D03*
X7362500Y-11575000D03*
X7362500Y-10925000D03*
X1637500Y-10925000D03*
X1637500Y-11575000D03*
X1637500Y-12225000D03*
X1637500Y-12875000D03*
X1637500Y-13525000D03*
X1637500Y-14175000D03*
X1637500Y-14825000D03*
X1637500Y-15475000D03*
%TD*%
D37*
%TO.C,*%
X-20000000Y23000000D03*
%TD*%
D38*
%TO.C,U3*%
X14341168Y9992282D03*
X14341168Y11392282D03*
X13241168Y11392282D03*
X13241168Y9992282D03*
%TD*%
D20*
%TO.C,R17*%
X3690000Y600000D03*
X4710000Y600000D03*
%TD*%
D39*
%TO.C,J11*%
X19000000Y-16500000D03*
X19000000Y-21500000D03*
%TD*%
D37*
%TO.C,*%
X20000000Y-27000000D03*
%TD*%
D31*
%TO.C,J10*%
X13025000Y-27500000D03*
X13025000Y-26500000D03*
X13025000Y-25500000D03*
X13025000Y-24500000D03*
X13025000Y-23500000D03*
X13025000Y-22500000D03*
D32*
X10500000Y-28800000D03*
X10500000Y-21200000D03*
%TD*%
D39*
%TO.C,J6*%
X-19000000Y-1500000D03*
X-19000000Y3500000D03*
%TD*%
D20*
%TO.C,R6*%
X-7810000Y-16700000D03*
X-6790000Y-16700000D03*
%TD*%
D40*
%TO.C,U2*%
X10500000Y13337500D03*
X10100000Y13337500D03*
X9700000Y13337500D03*
X9300000Y13337500D03*
X8900000Y13337500D03*
X8500000Y13337500D03*
X8100000Y13337500D03*
X7700000Y13337500D03*
X7300000Y13337500D03*
X6900000Y13337500D03*
X6500000Y13337500D03*
X6100000Y13337500D03*
X5700000Y13337500D03*
X5300000Y13337500D03*
D41*
X4462500Y12500000D03*
X4462500Y12100000D03*
X4462500Y11700000D03*
X4462500Y11300000D03*
X4462500Y10900000D03*
X4462500Y10500000D03*
X4462500Y10100000D03*
X4462500Y9700000D03*
X4462500Y9300000D03*
X4462500Y8900000D03*
X4462500Y8500000D03*
X4462500Y8100000D03*
X4462500Y7700000D03*
X4462500Y7300000D03*
D40*
X5300000Y6462500D03*
X5700000Y6462500D03*
X6100000Y6462500D03*
X6500000Y6462500D03*
X6900000Y6462500D03*
X7300000Y6462500D03*
X7700000Y6462500D03*
X8100000Y6462500D03*
X8500000Y6462500D03*
X8900000Y6462500D03*
X9300000Y6462500D03*
X9700000Y6462500D03*
X10100000Y6462500D03*
X10500000Y6462500D03*
D41*
X11337500Y7300000D03*
X11337500Y7700000D03*
X11337500Y8100000D03*
X11337500Y8500000D03*
X11337500Y8900000D03*
X11337500Y9300000D03*
X11337500Y9700000D03*
X11337500Y10100000D03*
X11337500Y10500000D03*
X11337500Y10900000D03*
X11337500Y11300000D03*
X11337500Y11700000D03*
X11337500Y12100000D03*
X11337500Y12500000D03*
D42*
X7899999Y9899999D03*
%TD*%
D43*
%TO.C,U19*%
X-1269999Y-20999999D03*
X1269999Y-20999999D03*
X-1269999Y-18459999D03*
X1269999Y-18459999D03*
X-1269999Y-23539999D03*
X1269999Y-23539999D03*
%TD*%
D28*
%TO.C,C33*%
X-4824000Y9612500D03*
X-5784000Y9612500D03*
%TD*%
D21*
%TO.C,R30*%
X6821025Y16108642D03*
X6821025Y15088642D03*
%TD*%
D44*
%TO.C,J15*%
X0Y21182500D03*
X-6650000Y21182500D03*
D45*
X-2550000Y16482500D03*
%TD*%
D14*
%TO.C,C32*%
X-2455223Y8898251D03*
X-1495223Y8898251D03*
%TD*%
D46*
%TO.C,D4*%
X13200000Y1450000D03*
X13200000Y3950000D03*
%TD*%
D22*
%TO.C,R24*%
X16010000Y-28100000D03*
X14990000Y-28100000D03*
%TD*%
D16*
%TO.C,C43*%
X-7600000Y-25520000D03*
X-7600000Y-26480000D03*
%TD*%
D17*
%TO.C,U5*%
X-4499999Y-13199999D03*
D27*
X-7362500Y-10925000D03*
X-7362500Y-11575000D03*
X-7362500Y-12225000D03*
X-7362500Y-12875000D03*
X-7362500Y-13525000D03*
X-7362500Y-14175000D03*
X-7362500Y-14825000D03*
X-7362500Y-15475000D03*
X-1637500Y-15475000D03*
X-1637500Y-14825000D03*
X-1637500Y-14175000D03*
X-1637500Y-13525000D03*
X-1637500Y-12875000D03*
X-1637500Y-12225000D03*
X-1637500Y-11575000D03*
X-1637500Y-10925000D03*
%TD*%
D14*
%TO.C,C37*%
X13099037Y12601471D03*
X14059037Y12601471D03*
%TD*%
D39*
%TO.C,J5*%
X-19000000Y8500000D03*
X-19000000Y13500000D03*
%TD*%
D47*
%TO.C,U9*%
X1949999Y16637499D03*
D48*
X1874999Y16099999D03*
D47*
X1949999Y15562499D03*
X3649999Y15562499D03*
D48*
X3724999Y16099999D03*
D47*
X3649999Y16637499D03*
%TD*%
D49*
%TO.C,C11*%
X-850000Y-1200000D03*
X-2750000Y-1200000D03*
%TD*%
D20*
%TO.C,R12*%
X-310000Y7500000D03*
X710000Y7500000D03*
%TD*%
D14*
%TO.C,C13*%
X4820000Y-16700000D03*
X5780000Y-16700000D03*
%TD*%
D31*
%TO.C,J1*%
X13025000Y-7500000D03*
X13025000Y-6500000D03*
X13025000Y-5500000D03*
X13025000Y-4500000D03*
X13025000Y-3500000D03*
X13025000Y-2500000D03*
D32*
X10500000Y-8800000D03*
X10500000Y-1200000D03*
%TD*%
D50*
%TO.C,U17*%
X9590000Y19675000D03*
X3810000Y19675000D03*
D51*
X9899999Y18614999D03*
X9099999Y18614999D03*
D52*
X7949999Y18614999D03*
X6949999Y18614999D03*
X6449999Y18614999D03*
X5449999Y18614999D03*
D51*
X4299999Y18614999D03*
X3499999Y18614999D03*
X3499999Y18614999D03*
X4299999Y18614999D03*
D52*
X4949999Y18614999D03*
X5949999Y18614999D03*
X7449999Y18614999D03*
X8449999Y18614999D03*
D51*
X9099999Y18614999D03*
X9899999Y18614999D03*
D53*
X11019999Y19194999D03*
D54*
X11019999Y23364999D03*
D53*
X2379999Y19194999D03*
D54*
X2379999Y23364999D03*
%TD*%
D25*
%TO.C,R5*%
X8721537Y15059999D03*
X8721537Y16079999D03*
%TD*%
D55*
%TO.C,C36*%
X-6875000Y-1600000D03*
X-5325000Y-1600000D03*
%TD*%
D56*
%TO.C,C2*%
X1450000Y-1200000D03*
X3350000Y-1200000D03*
%TD*%
D57*
%TO.C,U26*%
X-749999Y-28262499D03*
X-249999Y-28262499D03*
X249999Y-28262499D03*
X749999Y-28262499D03*
D58*
X1012499Y-27499999D03*
X1012499Y-26999999D03*
X1012499Y-26499999D03*
D57*
X749999Y-25737499D03*
X249999Y-25737499D03*
X-249999Y-25737499D03*
X-749999Y-25737499D03*
D58*
X-1012499Y-26499999D03*
X-1012499Y-26999999D03*
X-1012499Y-27499999D03*
%TD*%
D39*
%TO.C,J2*%
X19000000Y3500000D03*
X19000000Y-1500000D03*
%TD*%
D28*
%TO.C,C3*%
X5780000Y-1700000D03*
X4820000Y-1700000D03*
%TD*%
D20*
%TO.C,R20*%
X14990000Y-25400000D03*
X16010000Y-25400000D03*
%TD*%
D39*
%TO.C,J12*%
X19000000Y-6500000D03*
X19000000Y-11500000D03*
%TD*%
D21*
%TO.C,R10*%
X11900000Y21910000D03*
X11900000Y20890000D03*
%TD*%
D34*
%TO.C,J4*%
X-13025000Y-2500000D03*
X-13025000Y-3500000D03*
X-13025000Y-4500000D03*
X-13025000Y-5500000D03*
X-13025000Y-6500000D03*
X-13025000Y-7500000D03*
D35*
X-10500000Y-1200000D03*
X-10500000Y-8800000D03*
%TD*%
D56*
%TO.C,C8*%
X1450000Y-9200000D03*
X3350000Y-9200000D03*
%TD*%
D39*
%TO.C,J3*%
X19000000Y13500000D03*
X19000000Y8500000D03*
%TD*%
D22*
%TO.C,R8*%
X7910000Y-9700000D03*
X6890000Y-9700000D03*
%TD*%
%TO.C,R13*%
X-4794000Y10518500D03*
X-5814000Y10518500D03*
%TD*%
D28*
%TO.C,C31*%
X14059037Y14298528D03*
X13099037Y14298528D03*
%TD*%
D59*
%TO.C,L2*%
X-4700000Y4025000D03*
X-4700000Y2375000D03*
%TD*%
D22*
%TO.C,R1*%
X7910000Y-1700000D03*
X6890000Y-1700000D03*
%TD*%
D14*
%TO.C,C9*%
X-5680000Y-16700000D03*
X-4720000Y-16700000D03*
%TD*%
D60*
%TO.C,U25*%
X-5749999Y-28274999D03*
X-5249999Y-28274999D03*
X-4749999Y-28274999D03*
X-4249999Y-28274999D03*
D61*
X-3724999Y-27749999D03*
X-3724999Y-27249999D03*
X-3724999Y-26749999D03*
X-3724999Y-26249999D03*
D60*
X-4249999Y-25724999D03*
X-4749999Y-25724999D03*
X-5249999Y-25724999D03*
X-5749999Y-25724999D03*
D61*
X-6274999Y-26249999D03*
X-6274999Y-26749999D03*
X-6274999Y-27249999D03*
X-6274999Y-27749999D03*
%TD*%
D57*
%TO.C,U23*%
X5749999Y-25737499D03*
X5249999Y-25737499D03*
X4749999Y-25737499D03*
X4249999Y-25737499D03*
D58*
X3987499Y-26499999D03*
X3987499Y-26999999D03*
X3987499Y-27499999D03*
D57*
X4249999Y-28262499D03*
X4749999Y-28262499D03*
X5249999Y-28262499D03*
X5749999Y-28262499D03*
D58*
X6012499Y-27499999D03*
X6012499Y-26999999D03*
X6012499Y-26499999D03*
%TD*%
D16*
%TO.C,C21*%
X10591537Y16050000D03*
X10591537Y15090000D03*
%TD*%
D20*
%TO.C,R31*%
X10890000Y600000D03*
X11910000Y600000D03*
%TD*%
D14*
%TO.C,C6*%
X-5680000Y-8700000D03*
X-4720000Y-8700000D03*
%TD*%
D43*
%TO.C,U18*%
X-6369999Y-20999999D03*
X-3829999Y-20999999D03*
X-6369999Y-18459999D03*
X-3829999Y-18459999D03*
X-6369999Y-23539999D03*
X-3829999Y-23539999D03*
%TD*%
D62*
%TO.C,U15*%
X-1314394Y11999495D03*
X-1314394Y11049495D03*
X-1314394Y10099495D03*
X960606Y10099495D03*
X960606Y11049495D03*
X960606Y11999495D03*
%TD*%
D20*
%TO.C,R14*%
X-4810000Y11400000D03*
X-3790000Y11400000D03*
%TD*%
D39*
%TO.C,J9*%
X-19000000Y-21500000D03*
X-19000000Y-16500000D03*
%TD*%
D43*
%TO.C,U7*%
X3779999Y-20999999D03*
X6319999Y-20999999D03*
X3779999Y-18459999D03*
X6319999Y-18459999D03*
X3779999Y-23539999D03*
X6319999Y-23539999D03*
%TD*%
D49*
%TO.C,C5*%
X-1450000Y-9200000D03*
X-3350000Y-9200000D03*
%TD*%
D16*
%TO.C,C24*%
X9621538Y16050000D03*
X9621538Y15090000D03*
%TD*%
D37*
%TO.C,*%
X0Y3000000D03*
%TD*%
D46*
%TO.C,D5*%
X6000000Y1450000D03*
X6000000Y3950000D03*
%TD*%
D22*
%TO.C,R25*%
X16010000Y-29000000D03*
X14990000Y-29000000D03*
%TD*%
D46*
%TO.C,U8*%
X16450000Y19700000D03*
X16450000Y21700000D03*
X16450000Y23700000D03*
X20950000Y19700000D03*
X20950000Y21700000D03*
X20950000Y23700000D03*
%TD*%
D29*
%TO.C,C20*%
X-11150000Y14000000D03*
X-13150000Y14000000D03*
%TD*%
D15*
%TO.C,C1*%
X7759037Y15090000D03*
X7759037Y16050000D03*
%TD*%
D20*
%TO.C,R11*%
X-2510000Y7900000D03*
X-1490000Y7900000D03*
%TD*%
D28*
%TO.C,C12*%
X5780000Y-9700000D03*
X4820000Y-9700000D03*
%TD*%
D15*
%TO.C,C28*%
X200000Y13320000D03*
X200000Y14280000D03*
%TD*%
D24*
%TO.C,C23*%
X-2800000Y11675000D03*
X-2800000Y10125000D03*
%TD*%
D39*
%TO.C,J8*%
X-19000000Y-11500000D03*
X-19000000Y-6500000D03*
%TD*%
D16*
%TO.C,C26*%
X2700000Y8280000D03*
X2700000Y7320000D03*
%TD*%
D46*
%TO.C,D6*%
X9600000Y1450000D03*
X9600000Y3950000D03*
%TD*%
D63*
%TO.C,L1*%
X-875000Y14100000D03*
X-2525000Y14100000D03*
%TD*%
D20*
%TO.C,R21*%
X14990000Y-26300000D03*
X16010000Y-26300000D03*
%TD*%
D28*
%TO.C,C14*%
X12880000Y15500000D03*
X11920000Y15500000D03*
%TD*%
D19*
%TO.C,D1*%
X14950000Y23300000D03*
X12450000Y23300000D03*
%TD*%
D25*
%TO.C,R28*%
X-2400000Y-26510000D03*
X-2400000Y-25490000D03*
%TD*%
D19*
%TO.C,D3*%
X14950000Y18500000D03*
X12450000Y18500000D03*
%TD*%
D15*
%TO.C,C42*%
X-7600000Y-28480000D03*
X-7600000Y-27520000D03*
%TD*%
D25*
%TO.C,R29*%
X5821025Y15098642D03*
X5821025Y16118642D03*
%TD*%
%TO.C,R22*%
X-2400000Y-28510000D03*
X-2400000Y-27490000D03*
%TD*%
D22*
%TO.C,R27*%
X17100000Y17000000D03*
X16080000Y17000000D03*
%TD*%
D26*
%TO.C,SW1*%
X-16200000Y-24900000D03*
X-16200000Y-29100000D03*
%TD*%
D16*
%TO.C,C29*%
X-2853646Y7173901D03*
X-2853646Y6213901D03*
%TD*%
D64*
%TO.C,J14*%
X19225000Y17300000D03*
X22175000Y17300000D03*
%TD*%
D34*
%TO.C,J7*%
X-13025000Y-12500000D03*
X-13025000Y-13500000D03*
X-13025000Y-14500000D03*
X-13025000Y-15500000D03*
X-13025000Y-16500000D03*
X-13025000Y-17500000D03*
D35*
X-10500000Y-11200000D03*
X-10500000Y-18800000D03*
%TD*%
M02*
