M48
; DRILL file {KiCad (7.0.0)} date Mon Aug  7 02:07:43 2023
; FORMAT={-:-/ absolute / inch / decimal}
; #@! TF.CreationDate,2023-08-07T02:07:43-04:00
; #@! TF.GenerationSoftware,Kicad,Pcbnew,(7.0.0)
; #@! TF.FileFunction,Plated,1,4,PTH
FMAT,2
INCH
; #@! TA.AperFunction,Plated,PTH,ViaDrill
T1C0.0079
; #@! TA.AperFunction,Plated,PTH,ComponentDrill
T2C0.0236
; #@! TA.AperFunction,Plated,PTH,ComponentDrill
T3C0.0276
; #@! TA.AperFunction,Plated,PTH,ComponentDrill
T4C0.0315
; #@! TA.AperFunction,Plated,PTH,ComponentDrill
T5C0.0354
; #@! TA.AperFunction,Plated,PTH,ComponentDrill
T6C0.0394
; #@! TA.AperFunction,Plated,PTH,ComponentDrill
T7C0.0472
%
G90
G05
T1
X-0.8819Y-0.9449
X-0.862Y-0.9274
X-0.7165Y-1.1457
X-0.6142Y-0.0315
X-0.5591Y-0.0984
X-0.5591Y-0.9646
X-0.5591Y-1.0039
X-0.5591Y-1.0433
X-0.5591Y-1.0827
X-0.5551Y-0.1772
X-0.5551Y-0.2165
X-0.5551Y-0.2559
X-0.5551Y-0.2953
X-0.5551Y-0.5709
X-0.5551Y-0.6102
X-0.5551Y-0.6496
X-0.5551Y-0.689
X-0.5021Y0.3731
X-0.502Y0.3986
X-0.502Y0.3228
X-0.502Y0.2451
X-0.502Y0.1703
X-0.502Y0.0679
X-0.502Y0.0177
X-0.5019Y0.3485
X-0.5019Y0.1449
X-0.5013Y0.0947
X-0.5012Y0.1203
X-0.4528Y-0.1811
X-0.4016Y-0.1339
X-0.3622Y-0.0709
X-0.3543Y-0.4291
X-0.3543Y-1.0945
X-0.3268Y-1.0433
X-0.3189Y-0.0551
X-0.2992Y-0.0354
X-0.2874Y-0.6811
X-0.2766Y-0.0089
X-0.2756Y0.3996
X-0.2756Y0.374
X-0.2756Y0.3484
X-0.2756Y0.3228
X-0.2756Y0.2972
X-0.2756Y0.2717
X-0.2756Y0.2461
X-0.2756Y0.2195
X-0.2756Y0.1713
X-0.2756Y0.1457
X-0.2756Y0.1201
X-0.2756Y0.0945
X-0.2756Y0.0689
X-0.2756Y0.0433
X-0.2756Y0.0177
X-0.2706Y-1.073
X-0.2696Y-1.1108
X-0.2323Y0.1929
X-0.2293Y-1.14
X-0.2215Y-1.0404
X-0.2147Y-0.6322
X-0.2126Y0.2756
X-0.2057Y-1.0915
X-0.2047Y0.1929
X-0.2047Y-0.1575
X-0.2047Y-0.25
X-0.2047Y-0.2992
X-0.2047Y-0.4724
X-0.2047Y-0.5669
X-0.186Y-1.0443
X-0.185Y0.2756
X-0.1656Y0.4035
X-0.1496Y-0.1575
X-0.1496Y-0.252
X-0.1496Y-0.4724
X-0.1496Y-0.5669
X-0.1417Y-0.3228
X-0.1417Y-0.4016
X-0.1336Y-0.0843
X-0.126Y-1.1142
X-0.1231Y0.589
X-0.1142Y0.3504
X-0.1087Y0.4373
X-0.0866Y-0.9724
X-0.0754Y0.5887
X-0.0669Y-1.0984
X-0.0354Y-0.0074
X-0.0236Y-0.1142
X-0.0236Y-0.1407
X-0.0236Y-0.2175
X-0.0236Y-0.2687
X-0.0236Y-0.2953
X-0.0236Y-0.4291
X-0.0236Y-0.4557
X-0.0236Y-0.5837
X-0.0236Y-0.6102
X-0.0167Y-0.5325
X-0.014Y-1.1461
X-0.0097Y-1.0688
X-0.0079Y0.4016
X-0.007Y0.435
X-0.0003Y0.6139
X0.0Y-0.3622
X0.0Y-0.9843
X0.0079Y-1.1634
X0.0118Y-1.0551
X0.0118Y-1.0827
X0.0236Y-0.1142
X0.0236Y-0.1407
X0.0236Y-0.1919
X0.0236Y-0.2677
X0.0236Y-0.2953
X0.0236Y-0.4291
X0.0236Y-0.4557
X0.0236Y-0.5069
X0.0236Y-0.5837
X0.0236Y-0.6102
X0.0268Y0.3499
X0.0408Y0.3734
X0.0571Y-0.0866
X0.0724Y0.3753
X0.075Y0.4969
X0.0862Y-1.1634
X0.0903Y0.4773
X0.0918Y0.2291
X0.0945Y-0.9764
X0.0984Y-0.0118
X0.0984Y-0.9488
X0.104Y0.4567
X0.1133Y0.5385
X0.1319Y-0.0866
X0.1339Y-0.3228
X0.1339Y-0.4016
X0.1357Y0.5278
X0.1378Y0.3976
X0.1378Y0.706
X0.1386Y0.2882
X0.1391Y0.2595
X0.1401Y0.372
X0.1401Y0.3445
X0.1417Y0.5894
X0.1496Y-0.1575
X0.1496Y-0.252
X0.1496Y-0.4724
X0.1496Y-0.5669
X0.1694Y0.7059
X0.1732Y0.58
X0.1789Y-1.1641
X0.185Y-1.0433
X0.185Y-1.0709
X0.1961Y0.5623
X0.1969Y-1.1417
X0.1983Y-0.9546
X0.1993Y-0.9822
X0.2047Y-0.1575
X0.2047Y-0.252
X0.2047Y-0.4724
X0.2047Y-0.5669
X0.2072Y0.3756
X0.2087Y-0.1063
X0.209Y0.4216
X0.2108Y-1.0808
X0.2126Y0.3465
X0.224Y0.5626
X0.2244Y-0.4134
X0.2283Y0.3976
X0.2374Y0.4914
X0.2517Y0.563
X0.2666Y-1.0484
X0.2677Y-1.0787
X0.2717Y0.2165
X0.2924Y0.4922
X0.2948Y0.563
X0.2992Y0.3108
X0.311Y0.437
X0.311Y0.3898
X0.311Y0.3386
X0.311Y-0.3189
X0.3189Y0.4961
X0.3189Y-0.6575
X0.3228Y-1.0591
X0.3268Y0.3108
X0.3346Y0.6654
X0.3346Y0.5551
X0.3428Y0.2205
X0.3429Y0.1925
X0.3504Y0.4961
X0.3543Y0.3108
X0.3583Y0.5669
X0.3585Y0.7064
X0.3701Y-0.9291
X0.3901Y0.7056
X0.3969Y0.1039
X0.3975Y0.4284
X0.4093Y0.3214
X0.4094Y0.4685
X0.4094Y0.378
X0.4094Y0.3504
X0.4094Y0.2953
X0.4218Y0.1056
X0.4291Y-0.9331
X0.4354Y0.561
X0.4516Y0.1079
X0.4724Y0.7795
X0.482Y0.1086
X0.4826Y0.4409
X0.4826Y0.4035
X0.4826Y0.376
X0.4866Y0.5059
X0.4882Y0.6378
X0.4882Y0.5433
X0.4905Y0.3346
X0.5354Y0.6378
X0.5354Y0.5906
X0.5435Y0.7893
X0.5551Y-0.8858
X0.5551Y-0.9252
X0.5591Y-0.0984
X0.5591Y-0.1378
X0.5591Y-0.1772
X0.5591Y-0.2165
X0.5591Y-0.4921
X0.5591Y-0.5315
X0.5591Y-0.5709
X0.5591Y-0.6102
X0.563Y0.8071
X0.563Y0.7717
X0.5669Y-1.1417
X0.5787Y0.6378
X0.5787Y0.5906
X0.5801Y0.5297
X0.5818Y0.7896
X0.5866Y0.2795
X0.5906Y-0.8858
X0.5929Y0.4485
X0.5929Y0.3957
X0.6102Y0.7047
X0.6102Y-0.9764
X0.6142Y0.6378
X0.6142Y0.5906
X0.6535Y0.6378
X0.6535Y0.5906
X0.6693Y0.7283
X0.6811Y-0.9685
X0.6811Y-1.0
X0.6811Y-1.0354
X0.6811Y-1.0709
X0.6811Y-1.1063
X0.6811Y-1.1417
T3
X-0.5177Y0.5512
X-0.439Y0.5512
X-0.315Y0.5512
X-0.2362Y0.5512
T4
X0.2362Y0.1555
X0.2362Y0.0571
X0.378Y0.1555
X0.378Y0.0571
X0.5197Y0.1555
X0.5197Y0.0571
T5
X0.6476Y0.9331
X0.6476Y0.8543
X0.6476Y0.7756
X0.8248Y0.9331
X0.8248Y0.8543
X0.8248Y0.7756
T6
X-0.2508Y-0.7268
X-0.2508Y-0.8268
X-0.2508Y-0.9268
X-0.1508Y-0.7268
X-0.1508Y-0.8268
X-0.1508Y-0.9268
X-0.05Y-0.7268
X-0.05Y-0.8268
X-0.05Y-0.9268
X0.05Y-0.7268
X0.05Y-0.8268
X0.05Y-0.9268
X0.1488Y-0.7268
X0.1488Y-0.8268
X0.1488Y-0.9268
X0.2488Y-0.7268
X0.2488Y-0.8268
X0.2488Y-0.9268
T7
X-0.748Y0.5315
X-0.748Y0.3346
X-0.748Y0.1378
X-0.748Y-0.0591
X-0.748Y-0.2559
X-0.748Y-0.4528
X-0.748Y-0.6496
X-0.748Y-0.8465
X0.748Y0.5315
X0.748Y0.3346
X0.748Y0.1378
X0.748Y-0.0591
X0.748Y-0.2559
X0.748Y-0.4528
X0.748Y-0.6496
X0.748Y-0.8465
T2
G00X0.0937Y0.9356
M15
G01X0.0937Y0.9041
M16
G05
G00X0.0937Y0.7774
M15
G01X0.0937Y0.7341
M16
G05
G00X0.4339Y0.9356
M15
G01X0.4339Y0.9041
M16
G05
G00X0.4339Y0.7774
M15
G01X0.4339Y0.7341
M16
G05
T4
G00X-0.2618Y0.8576
M15
G01X-0.2618Y0.8103
M16
G05
G00X-0.124Y0.6489
M15
G01X-0.0768Y0.6489
M16
G05
G00X0.0Y0.8576
M15
G01X0.0Y0.8103
M16
G05
T0
M30
