%TF.GenerationSoftware,KiCad,Pcbnew,(7.0.0)*%
%TF.CreationDate,2023-08-07T02:07:42-04:00*%
%TF.ProjectId,NoU3,4e6f5533-2e6b-4696-9361-645f70636258,rev?*%
%TF.SameCoordinates,Original*%
%TF.FileFunction,Soldermask,Top*%
%TF.FilePolarity,Negative*%
%FSLAX46Y46*%
G04 Gerber Fmt 4.6, Leading zero omitted, Abs format (unit mm)*
G04 Created by KiCad (PCBNEW (7.0.0)) date 2023-08-07 02:07:42*
%MOMM*%
%LPD*%
G01*
G04 APERTURE LIST*
G04 Aperture macros list*
%AMRoundRect*
0 Rectangle with rounded corners*
0 $1 Rounding radius*
0 $2 $3 $4 $5 $6 $7 $8 $9 X,Y pos of 4 corners*
0 Add a 4 corners polygon primitive as box body*
4,1,4,$2,$3,$4,$5,$6,$7,$8,$9,$2,$3,0*
0 Add four circle primitives for the rounded corners*
1,1,$1+$1,$2,$3*
1,1,$1+$1,$4,$5*
1,1,$1+$1,$6,$7*
1,1,$1+$1,$8,$9*
0 Add four rect primitives between the rounded corners*
20,1,$1+$1,$2,$3,$4,$5,0*
20,1,$1+$1,$4,$5,$6,$7,0*
20,1,$1+$1,$6,$7,$8,$9,0*
20,1,$1+$1,$8,$9,$2,$3,0*%
G04 Aperture macros list end*
%ADD10RoundRect,0.140000X-0.140000X-0.170000X0.140000X-0.170000X0.140000X0.170000X-0.140000X0.170000X0*%
%ADD11RoundRect,0.140000X0.170000X-0.140000X0.170000X0.140000X-0.170000X0.140000X-0.170000X-0.140000X0*%
%ADD12RoundRect,0.140000X-0.170000X0.140000X-0.170000X-0.140000X0.170000X-0.140000X0.170000X0.140000X0*%
%ADD13R,2.794000X3.810000*%
%ADD14RoundRect,0.100000X0.687500X0.100000X-0.687500X0.100000X-0.687500X-0.100000X0.687500X-0.100000X0*%
%ADD15RoundRect,0.250000X0.250000X0.250000X-0.250000X0.250000X-0.250000X-0.250000X0.250000X-0.250000X0*%
%ADD16RoundRect,0.135000X-0.135000X-0.185000X0.135000X-0.185000X0.135000X0.185000X-0.135000X0.185000X0*%
%ADD17RoundRect,0.135000X-0.185000X0.135000X-0.185000X-0.135000X0.185000X-0.135000X0.185000X0.135000X0*%
%ADD18RoundRect,0.135000X0.135000X0.185000X-0.135000X0.185000X-0.135000X-0.185000X0.135000X-0.185000X0*%
%ADD19RoundRect,0.100000X0.637500X0.100000X-0.637500X0.100000X-0.637500X-0.100000X0.637500X-0.100000X0*%
%ADD20RoundRect,0.225000X-0.250000X0.225000X-0.250000X-0.225000X0.250000X-0.225000X0.250000X0.225000X0*%
%ADD21RoundRect,0.135000X0.185000X-0.135000X0.185000X0.135000X-0.185000X0.135000X-0.185000X-0.135000X0*%
%ADD22RoundRect,0.100000X-0.900000X0.300000X-0.900000X-0.300000X0.900000X-0.300000X0.900000X0.300000X0*%
%ADD23RoundRect,0.100000X-0.687500X-0.100000X0.687500X-0.100000X0.687500X0.100000X-0.687500X0.100000X0*%
%ADD24RoundRect,0.140000X0.140000X0.170000X-0.140000X0.170000X-0.140000X-0.170000X0.140000X-0.170000X0*%
%ADD25C,1.200000*%
%ADD26RoundRect,0.225000X0.225000X0.250000X-0.225000X0.250000X-0.225000X-0.250000X0.225000X-0.250000X0*%
%ADD27RoundRect,0.150000X0.625000X-0.150000X0.625000X0.150000X-0.625000X0.150000X-0.625000X-0.150000X0*%
%ADD28RoundRect,0.250000X0.650000X-0.350000X0.650000X0.350000X-0.650000X0.350000X-0.650000X-0.350000X0*%
%ADD29RoundRect,0.150000X0.150000X-0.400000X0.150000X0.400000X-0.150000X0.400000X-0.150000X-0.400000X0*%
%ADD30RoundRect,0.150000X-0.625000X0.150000X-0.625000X-0.150000X0.625000X-0.150000X0.625000X0.150000X0*%
%ADD31RoundRect,0.250000X-0.650000X0.350000X-0.650000X-0.350000X0.650000X-0.350000X0.650000X0.350000X0*%
%ADD32RoundRect,0.150000X-0.150000X0.512500X-0.150000X-0.512500X0.150000X-0.512500X0.150000X0.512500X0*%
%ADD33C,3.200000*%
%ADD34R,0.800000X0.900000*%
%ADD35C,2.100000*%
%ADD36RoundRect,0.050000X-0.050000X0.387500X-0.050000X-0.387500X0.050000X-0.387500X0.050000X0.387500X0*%
%ADD37RoundRect,0.050000X-0.387500X0.050000X-0.387500X-0.050000X0.387500X-0.050000X0.387500X0.050000X0*%
%ADD38R,3.200000X3.200000*%
%ADD39O,1.700000X1.700000*%
%ADD40RoundRect,0.800000X0.000000X-0.600000X0.000000X-0.600000X0.000000X0.600000X0.000000X0.600000X0*%
%ADD41RoundRect,0.800000X0.600000X0.000000X0.600000X0.000000X-0.600000X0.000000X-0.600000X0.000000X0*%
%ADD42C,1.500000*%
%ADD43R,0.500000X0.375000*%
%ADD44R,0.650000X0.300000*%
%ADD45RoundRect,0.250000X0.250000X0.475000X-0.250000X0.475000X-0.250000X-0.475000X0.250000X-0.475000X0*%
%ADD46C,0.600000*%
%ADD47R,0.600000X1.160000*%
%ADD48R,0.300000X1.160000*%
%ADD49O,0.900000X2.000000*%
%ADD50O,0.900000X1.700000*%
%ADD51RoundRect,0.225000X-0.225000X-0.250000X0.225000X-0.250000X0.225000X0.250000X-0.225000X0.250000X0*%
%ADD52RoundRect,0.250000X-0.250000X-0.475000X0.250000X-0.475000X0.250000X0.475000X-0.250000X0.475000X0*%
%ADD53R,0.250000X0.675000*%
%ADD54R,0.675000X0.250000*%
%ADD55RoundRect,0.212500X-0.887500X0.212500X-0.887500X-0.212500X0.887500X-0.212500X0.887500X0.212500X0*%
%ADD56R,0.300000X0.450000*%
%ADD57R,0.450000X0.300000*%
%ADD58RoundRect,0.150000X-0.512500X-0.150000X0.512500X-0.150000X0.512500X0.150000X-0.512500X0.150000X0*%
%ADD59RoundRect,0.212500X0.212500X0.887500X-0.212500X0.887500X-0.212500X-0.887500X0.212500X-0.887500X0*%
%ADD60RoundRect,0.250000X-0.325000X-0.650000X0.325000X-0.650000X0.325000X0.650000X-0.325000X0.650000X0*%
G04 APERTURE END LIST*
D10*
%TO.C,C38*%
X13529037Y8850000D03*
X14489037Y8850000D03*
%TD*%
D11*
%TO.C,C7*%
X-4100000Y-1780000D03*
X-4100000Y-820000D03*
%TD*%
D12*
%TO.C,C41*%
X2500000Y-27520000D03*
X2500000Y-28480000D03*
%TD*%
D13*
%TO.C,U1*%
X4499999Y-5199999D03*
D14*
X7362500Y-7475000D03*
X7362500Y-6825000D03*
X7362500Y-6175000D03*
X7362500Y-5525000D03*
X7362500Y-4875000D03*
X7362500Y-4225000D03*
X7362500Y-3575000D03*
X7362500Y-2925000D03*
X1637500Y-2925000D03*
X1637500Y-3575000D03*
X1637500Y-4225000D03*
X1637500Y-4875000D03*
X1637500Y-5525000D03*
X1637500Y-6175000D03*
X1637500Y-6825000D03*
X1637500Y-7475000D03*
%TD*%
D15*
%TO.C,D2*%
X13250000Y17200000D03*
X10750000Y17200000D03*
%TD*%
D16*
%TO.C,R3*%
X-7810000Y-8700000D03*
X-6790000Y-8700000D03*
%TD*%
D11*
%TO.C,C40*%
X2500000Y-26530000D03*
X2500000Y-25570000D03*
%TD*%
D17*
%TO.C,R19*%
X7500000Y-25885000D03*
X7500000Y-26905000D03*
%TD*%
D18*
%TO.C,R26*%
X15310000Y17000000D03*
X14290000Y17000000D03*
%TD*%
%TO.C,R23*%
X16010000Y-27200000D03*
X14990000Y-27200000D03*
%TD*%
D11*
%TO.C,C25*%
X2700001Y9570000D03*
X2700001Y10530000D03*
%TD*%
D19*
%TO.C,U13*%
X-8187500Y450000D03*
X-8187500Y1100000D03*
X-8187500Y1750000D03*
X-8187500Y2400000D03*
X-8187500Y3050000D03*
X-8187500Y3700000D03*
X-8187500Y4350000D03*
X-8187500Y5000000D03*
X-13912500Y5000000D03*
X-13912500Y4350000D03*
X-13912500Y3700000D03*
X-13912500Y3050000D03*
X-13912500Y2400000D03*
X-13912500Y1750000D03*
X-13912500Y1100000D03*
X-13912500Y450000D03*
%TD*%
D20*
%TO.C,C35*%
X-3800000Y14775000D03*
X-3800000Y13225000D03*
%TD*%
D19*
%TO.C,U14*%
X-8187500Y6250000D03*
X-8187500Y6900000D03*
X-8187500Y7550000D03*
X-8187500Y8200000D03*
X-8187500Y8850000D03*
X-8187500Y9500000D03*
X-8187500Y10150000D03*
X-8187500Y10800000D03*
X-13912500Y10800000D03*
X-13912500Y10150000D03*
X-13912500Y9500000D03*
X-13912500Y8850000D03*
X-13912500Y8200000D03*
X-13912500Y7550000D03*
X-13912500Y6900000D03*
X-13912500Y6250000D03*
%TD*%
D18*
%TO.C,R15*%
X7513708Y16930788D03*
X6493708Y16930788D03*
%TD*%
D21*
%TO.C,R16*%
X1000000Y17990000D03*
X1000000Y19010000D03*
%TD*%
D22*
%TO.C,SW2*%
X-20200000Y-24900000D03*
X-20200000Y-29100000D03*
%TD*%
D17*
%TO.C,R18*%
X7800000Y1010000D03*
X7800000Y-10000D03*
%TD*%
D13*
%TO.C,U4*%
X-4499999Y-5199999D03*
D23*
X-7362500Y-2925000D03*
X-7362500Y-3575000D03*
X-7362500Y-4225000D03*
X-7362500Y-4875000D03*
X-7362500Y-5525000D03*
X-7362500Y-6175000D03*
X-7362500Y-6825000D03*
X-7362500Y-7475000D03*
X-1637500Y-7475000D03*
X-1637500Y-6825000D03*
X-1637500Y-6175000D03*
X-1637500Y-5525000D03*
X-1637500Y-4875000D03*
X-1637500Y-4225000D03*
X-1637500Y-3575000D03*
X-1637500Y-2925000D03*
%TD*%
D24*
%TO.C,C30*%
X14039037Y7950000D03*
X13079037Y7950000D03*
%TD*%
D25*
%TO.C,C39*%
X-8000000Y14000000D03*
X-6000000Y14000000D03*
%TD*%
D26*
%TO.C,C22*%
X1375000Y8700000D03*
X-175000Y8700000D03*
%TD*%
D27*
%TO.C,J17*%
X13025000Y-17500000D03*
X13025000Y-16500000D03*
X13025000Y-15500000D03*
X13025000Y-14500000D03*
X13025000Y-13500000D03*
X13025000Y-12500000D03*
D28*
X10500000Y-18800000D03*
X10500000Y-11200000D03*
%TD*%
D29*
%TO.C,Q1*%
X13050000Y20050000D03*
X14950000Y20050000D03*
X14000000Y21750000D03*
%TD*%
D24*
%TO.C,C34*%
X14059037Y13450000D03*
X13099037Y13450000D03*
%TD*%
D30*
%TO.C,J13*%
X-13025000Y-22500000D03*
X-13025000Y-23500000D03*
X-13025000Y-24500000D03*
X-13025000Y-25500000D03*
X-13025000Y-26500000D03*
X-13025000Y-27500000D03*
D31*
X-10500000Y-21200000D03*
X-10500000Y-28800000D03*
%TD*%
D32*
%TO.C,U16*%
X-4100000Y8100000D03*
X-5050000Y8100000D03*
X-6000000Y8100000D03*
X-6000000Y5825000D03*
X-5050000Y5825000D03*
X-4100000Y5825000D03*
%TD*%
D24*
%TO.C,C10*%
X-4720000Y-9700000D03*
X-5680000Y-9700000D03*
%TD*%
D10*
%TO.C,C4*%
X4820000Y-8700000D03*
X5780000Y-8700000D03*
%TD*%
%TO.C,C15*%
X16120000Y17900000D03*
X17080000Y17900000D03*
%TD*%
D12*
%TO.C,C27*%
X1800000Y7580000D03*
X1800000Y6620000D03*
%TD*%
D13*
%TO.C,U6*%
X4499999Y-13199999D03*
D14*
X7362500Y-15475000D03*
X7362500Y-14825000D03*
X7362500Y-14175000D03*
X7362500Y-13525000D03*
X7362500Y-12875000D03*
X7362500Y-12225000D03*
X7362500Y-11575000D03*
X7362500Y-10925000D03*
X1637500Y-10925000D03*
X1637500Y-11575000D03*
X1637500Y-12225000D03*
X1637500Y-12875000D03*
X1637500Y-13525000D03*
X1637500Y-14175000D03*
X1637500Y-14825000D03*
X1637500Y-15475000D03*
%TD*%
D33*
%TO.C,*%
X-20000000Y23000000D03*
%TD*%
D34*
%TO.C,U3*%
X14341168Y9992282D03*
X14341168Y11392282D03*
X13241168Y11392282D03*
X13241168Y9992282D03*
%TD*%
D16*
%TO.C,R17*%
X3690000Y600000D03*
X4710000Y600000D03*
%TD*%
D35*
%TO.C,J11*%
X19000000Y-16500000D03*
X19000000Y-21500000D03*
%TD*%
D33*
%TO.C,*%
X20000000Y-27000000D03*
%TD*%
D27*
%TO.C,J10*%
X13025000Y-27500000D03*
X13025000Y-26500000D03*
X13025000Y-25500000D03*
X13025000Y-24500000D03*
X13025000Y-23500000D03*
X13025000Y-22500000D03*
D28*
X10500000Y-28800000D03*
X10500000Y-21200000D03*
%TD*%
D35*
%TO.C,J6*%
X-19000000Y-1500000D03*
X-19000000Y3500000D03*
%TD*%
D16*
%TO.C,R6*%
X-7810000Y-16700000D03*
X-6790000Y-16700000D03*
%TD*%
D36*
%TO.C,U2*%
X10500000Y13337500D03*
X10100000Y13337500D03*
X9700000Y13337500D03*
X9300000Y13337500D03*
X8900000Y13337500D03*
X8500000Y13337500D03*
X8100000Y13337500D03*
X7700000Y13337500D03*
X7300000Y13337500D03*
X6900000Y13337500D03*
X6500000Y13337500D03*
X6100000Y13337500D03*
X5700000Y13337500D03*
X5300000Y13337500D03*
D37*
X4462500Y12500000D03*
X4462500Y12100000D03*
X4462500Y11700000D03*
X4462500Y11300000D03*
X4462500Y10900000D03*
X4462500Y10500000D03*
X4462500Y10100000D03*
X4462500Y9700000D03*
X4462500Y9300000D03*
X4462500Y8900000D03*
X4462500Y8500000D03*
X4462500Y8100000D03*
X4462500Y7700000D03*
X4462500Y7300000D03*
D36*
X5300000Y6462500D03*
X5700000Y6462500D03*
X6100000Y6462500D03*
X6500000Y6462500D03*
X6900000Y6462500D03*
X7300000Y6462500D03*
X7700000Y6462500D03*
X8100000Y6462500D03*
X8500000Y6462500D03*
X8900000Y6462500D03*
X9300000Y6462500D03*
X9700000Y6462500D03*
X10100000Y6462500D03*
X10500000Y6462500D03*
D37*
X11337500Y7300000D03*
X11337500Y7700000D03*
X11337500Y8100000D03*
X11337500Y8500000D03*
X11337500Y8900000D03*
X11337500Y9300000D03*
X11337500Y9700000D03*
X11337500Y10100000D03*
X11337500Y10500000D03*
X11337500Y10900000D03*
X11337500Y11300000D03*
X11337500Y11700000D03*
X11337500Y12100000D03*
X11337500Y12500000D03*
D38*
X7899999Y9899999D03*
%TD*%
D39*
%TO.C,U19*%
X-1269999Y-20999999D03*
X1269999Y-20999999D03*
X-1269999Y-18459999D03*
X1269999Y-18459999D03*
X-1269999Y-23539999D03*
X1269999Y-23539999D03*
%TD*%
D24*
%TO.C,C33*%
X-4824000Y9612500D03*
X-5784000Y9612500D03*
%TD*%
D17*
%TO.C,R30*%
X6821025Y16108642D03*
X6821025Y15088642D03*
%TD*%
D40*
%TO.C,J15*%
X0Y21182500D03*
X-6650000Y21182500D03*
D41*
X-2550000Y16482500D03*
%TD*%
D10*
%TO.C,C32*%
X-2455223Y8898251D03*
X-1495223Y8898251D03*
%TD*%
D42*
%TO.C,D4*%
X13200000Y1450000D03*
X13200000Y3950000D03*
%TD*%
D18*
%TO.C,R24*%
X16010000Y-28100000D03*
X14990000Y-28100000D03*
%TD*%
D12*
%TO.C,C43*%
X-7600000Y-25520000D03*
X-7600000Y-26480000D03*
%TD*%
D13*
%TO.C,U5*%
X-4499999Y-13199999D03*
D23*
X-7362500Y-10925000D03*
X-7362500Y-11575000D03*
X-7362500Y-12225000D03*
X-7362500Y-12875000D03*
X-7362500Y-13525000D03*
X-7362500Y-14175000D03*
X-7362500Y-14825000D03*
X-7362500Y-15475000D03*
X-1637500Y-15475000D03*
X-1637500Y-14825000D03*
X-1637500Y-14175000D03*
X-1637500Y-13525000D03*
X-1637500Y-12875000D03*
X-1637500Y-12225000D03*
X-1637500Y-11575000D03*
X-1637500Y-10925000D03*
%TD*%
D10*
%TO.C,C37*%
X13099037Y12601471D03*
X14059037Y12601471D03*
%TD*%
D35*
%TO.C,J5*%
X-19000000Y8500000D03*
X-19000000Y13500000D03*
%TD*%
D43*
%TO.C,U9*%
X1949999Y16637499D03*
D44*
X1874999Y16099999D03*
D43*
X1949999Y15562499D03*
X3649999Y15562499D03*
D44*
X3724999Y16099999D03*
D43*
X3649999Y16637499D03*
%TD*%
D45*
%TO.C,C11*%
X-850000Y-1200000D03*
X-2750000Y-1200000D03*
%TD*%
D16*
%TO.C,R12*%
X-310000Y7500000D03*
X710000Y7500000D03*
%TD*%
D10*
%TO.C,C13*%
X4820000Y-16700000D03*
X5780000Y-16700000D03*
%TD*%
D27*
%TO.C,J1*%
X13025000Y-7500000D03*
X13025000Y-6500000D03*
X13025000Y-5500000D03*
X13025000Y-4500000D03*
X13025000Y-3500000D03*
X13025000Y-2500000D03*
D28*
X10500000Y-8800000D03*
X10500000Y-1200000D03*
%TD*%
D46*
%TO.C,U17*%
X9590000Y19675000D03*
X3810000Y19675000D03*
D47*
X9899999Y18614999D03*
X9099999Y18614999D03*
D48*
X7949999Y18614999D03*
X6949999Y18614999D03*
X6449999Y18614999D03*
X5449999Y18614999D03*
D47*
X4299999Y18614999D03*
X3499999Y18614999D03*
X3499999Y18614999D03*
X4299999Y18614999D03*
D48*
X4949999Y18614999D03*
X5949999Y18614999D03*
X7449999Y18614999D03*
X8449999Y18614999D03*
D47*
X9099999Y18614999D03*
X9899999Y18614999D03*
D49*
X11019999Y19194999D03*
D50*
X11019999Y23364999D03*
D49*
X2379999Y19194999D03*
D50*
X2379999Y23364999D03*
%TD*%
D21*
%TO.C,R5*%
X8721537Y15059999D03*
X8721537Y16079999D03*
%TD*%
D51*
%TO.C,C36*%
X-6875000Y-1600000D03*
X-5325000Y-1600000D03*
%TD*%
D52*
%TO.C,C2*%
X1450000Y-1200000D03*
X3350000Y-1200000D03*
%TD*%
D53*
%TO.C,U26*%
X-749999Y-28262499D03*
X-249999Y-28262499D03*
X249999Y-28262499D03*
X749999Y-28262499D03*
D54*
X1012499Y-27499999D03*
X1012499Y-26999999D03*
X1012499Y-26499999D03*
D53*
X749999Y-25737499D03*
X249999Y-25737499D03*
X-249999Y-25737499D03*
X-749999Y-25737499D03*
D54*
X-1012499Y-26499999D03*
X-1012499Y-26999999D03*
X-1012499Y-27499999D03*
%TD*%
D35*
%TO.C,J2*%
X19000000Y3500000D03*
X19000000Y-1500000D03*
%TD*%
D24*
%TO.C,C3*%
X5780000Y-1700000D03*
X4820000Y-1700000D03*
%TD*%
D16*
%TO.C,R20*%
X14990000Y-25400000D03*
X16010000Y-25400000D03*
%TD*%
D35*
%TO.C,J12*%
X19000000Y-6500000D03*
X19000000Y-11500000D03*
%TD*%
D17*
%TO.C,R10*%
X11900000Y21910000D03*
X11900000Y20890000D03*
%TD*%
D30*
%TO.C,J4*%
X-13025000Y-2500000D03*
X-13025000Y-3500000D03*
X-13025000Y-4500000D03*
X-13025000Y-5500000D03*
X-13025000Y-6500000D03*
X-13025000Y-7500000D03*
D31*
X-10500000Y-1200000D03*
X-10500000Y-8800000D03*
%TD*%
D52*
%TO.C,C8*%
X1450000Y-9200000D03*
X3350000Y-9200000D03*
%TD*%
D35*
%TO.C,J3*%
X19000000Y13500000D03*
X19000000Y8500000D03*
%TD*%
D18*
%TO.C,R8*%
X7910000Y-9700000D03*
X6890000Y-9700000D03*
%TD*%
%TO.C,R13*%
X-4794000Y10518500D03*
X-5814000Y10518500D03*
%TD*%
D24*
%TO.C,C31*%
X14059037Y14298528D03*
X13099037Y14298528D03*
%TD*%
D55*
%TO.C,L2*%
X-4700000Y4025000D03*
X-4700000Y2375000D03*
%TD*%
D18*
%TO.C,R1*%
X7910000Y-1700000D03*
X6890000Y-1700000D03*
%TD*%
D10*
%TO.C,C9*%
X-5680000Y-16700000D03*
X-4720000Y-16700000D03*
%TD*%
D56*
%TO.C,U25*%
X-5749999Y-28274999D03*
X-5249999Y-28274999D03*
X-4749999Y-28274999D03*
X-4249999Y-28274999D03*
D57*
X-3724999Y-27749999D03*
X-3724999Y-27249999D03*
X-3724999Y-26749999D03*
X-3724999Y-26249999D03*
D56*
X-4249999Y-25724999D03*
X-4749999Y-25724999D03*
X-5249999Y-25724999D03*
X-5749999Y-25724999D03*
D57*
X-6274999Y-26249999D03*
X-6274999Y-26749999D03*
X-6274999Y-27249999D03*
X-6274999Y-27749999D03*
%TD*%
D53*
%TO.C,U23*%
X5749999Y-25737499D03*
X5249999Y-25737499D03*
X4749999Y-25737499D03*
X4249999Y-25737499D03*
D54*
X3987499Y-26499999D03*
X3987499Y-26999999D03*
X3987499Y-27499999D03*
D53*
X4249999Y-28262499D03*
X4749999Y-28262499D03*
X5249999Y-28262499D03*
X5749999Y-28262499D03*
D54*
X6012499Y-27499999D03*
X6012499Y-26999999D03*
X6012499Y-26499999D03*
%TD*%
D12*
%TO.C,C21*%
X10591537Y16050000D03*
X10591537Y15090000D03*
%TD*%
D16*
%TO.C,R31*%
X10890000Y600000D03*
X11910000Y600000D03*
%TD*%
D10*
%TO.C,C6*%
X-5680000Y-8700000D03*
X-4720000Y-8700000D03*
%TD*%
D39*
%TO.C,U18*%
X-6369999Y-20999999D03*
X-3829999Y-20999999D03*
X-6369999Y-18459999D03*
X-3829999Y-18459999D03*
X-6369999Y-23539999D03*
X-3829999Y-23539999D03*
%TD*%
D58*
%TO.C,U15*%
X-1314394Y11999495D03*
X-1314394Y11049495D03*
X-1314394Y10099495D03*
X960606Y10099495D03*
X960606Y11049495D03*
X960606Y11999495D03*
%TD*%
D16*
%TO.C,R14*%
X-4810000Y11400000D03*
X-3790000Y11400000D03*
%TD*%
D35*
%TO.C,J9*%
X-19000000Y-21500000D03*
X-19000000Y-16500000D03*
%TD*%
D39*
%TO.C,U7*%
X3779999Y-20999999D03*
X6319999Y-20999999D03*
X3779999Y-18459999D03*
X6319999Y-18459999D03*
X3779999Y-23539999D03*
X6319999Y-23539999D03*
%TD*%
D45*
%TO.C,C5*%
X-1450000Y-9200000D03*
X-3350000Y-9200000D03*
%TD*%
D12*
%TO.C,C24*%
X9621538Y16050000D03*
X9621538Y15090000D03*
%TD*%
D33*
%TO.C,*%
X0Y3000000D03*
%TD*%
D42*
%TO.C,D5*%
X6000000Y1450000D03*
X6000000Y3950000D03*
%TD*%
D18*
%TO.C,R25*%
X16010000Y-29000000D03*
X14990000Y-29000000D03*
%TD*%
D42*
%TO.C,U8*%
X16450000Y19700000D03*
X16450000Y21700000D03*
X16450000Y23700000D03*
X20950000Y19700000D03*
X20950000Y21700000D03*
X20950000Y23700000D03*
%TD*%
D25*
%TO.C,C20*%
X-11150000Y14000000D03*
X-13150000Y14000000D03*
%TD*%
D11*
%TO.C,C1*%
X7759037Y15090000D03*
X7759037Y16050000D03*
%TD*%
D16*
%TO.C,R11*%
X-2510000Y7900000D03*
X-1490000Y7900000D03*
%TD*%
D24*
%TO.C,C12*%
X5780000Y-9700000D03*
X4820000Y-9700000D03*
%TD*%
D11*
%TO.C,C28*%
X200000Y13320000D03*
X200000Y14280000D03*
%TD*%
D20*
%TO.C,C23*%
X-2800000Y11675000D03*
X-2800000Y10125000D03*
%TD*%
D35*
%TO.C,J8*%
X-19000000Y-11500000D03*
X-19000000Y-6500000D03*
%TD*%
D12*
%TO.C,C26*%
X2700000Y8280000D03*
X2700000Y7320000D03*
%TD*%
D42*
%TO.C,D6*%
X9600000Y1450000D03*
X9600000Y3950000D03*
%TD*%
D59*
%TO.C,L1*%
X-875000Y14100000D03*
X-2525000Y14100000D03*
%TD*%
D16*
%TO.C,R21*%
X14990000Y-26300000D03*
X16010000Y-26300000D03*
%TD*%
D24*
%TO.C,C14*%
X12880000Y15500000D03*
X11920000Y15500000D03*
%TD*%
D15*
%TO.C,D1*%
X14950000Y23300000D03*
X12450000Y23300000D03*
%TD*%
D21*
%TO.C,R28*%
X-2400000Y-26510000D03*
X-2400000Y-25490000D03*
%TD*%
D15*
%TO.C,D3*%
X14950000Y18500000D03*
X12450000Y18500000D03*
%TD*%
D11*
%TO.C,C42*%
X-7600000Y-28480000D03*
X-7600000Y-27520000D03*
%TD*%
D21*
%TO.C,R29*%
X5821025Y15098642D03*
X5821025Y16118642D03*
%TD*%
%TO.C,R22*%
X-2400000Y-28510000D03*
X-2400000Y-27490000D03*
%TD*%
D18*
%TO.C,R27*%
X17100000Y17000000D03*
X16080000Y17000000D03*
%TD*%
D22*
%TO.C,SW1*%
X-16200000Y-24900000D03*
X-16200000Y-29100000D03*
%TD*%
D12*
%TO.C,C29*%
X-2853646Y7173901D03*
X-2853646Y6213901D03*
%TD*%
D60*
%TO.C,J14*%
X19225000Y17300000D03*
X22175000Y17300000D03*
%TD*%
D30*
%TO.C,J7*%
X-13025000Y-12500000D03*
X-13025000Y-13500000D03*
X-13025000Y-14500000D03*
X-13025000Y-15500000D03*
X-13025000Y-16500000D03*
X-13025000Y-17500000D03*
D31*
X-10500000Y-11200000D03*
X-10500000Y-18800000D03*
%TD*%
M02*
